<?xml version="1.0" standalone="no"?>
<!DOCTYPE svg PUBLIC "-//W3C//DTD SVG 20010904//EN" "http://www.w3.org/TR/2001/REC-SVG-20010904/DTD/svg10.dtd">
<!-- Created using Krita: https://krita.org -->
<svg xmlns="http://www.w3.org/2000/svg" 
    xmlns:xlink="http://www.w3.org/1999/xlink"
    xmlns:krita="http://krita.org/namespaces/svg/krita"
    xmlns:sodipodi="http://sodipodi.sourceforge.net/DTD/sodipodi-0.dtd"
    width="737.28pt"
    height="737.28pt"
    viewBox="0 0 737.28 737.28">
<defs/>
<path id="shape0" transform="matrix(3.66103668349761 0 0 3.66103668349761 227.803897453352 229.459979972547)" fill="none" stroke="#394d42" stroke-width="3.00999999999976" stroke-linecap="square" stroke-linejoin="miter" stroke-miterlimit="2" d="M0 0.20993L65.9376 0" sodipodi:nodetypes="cc"/><path id="shape1" transform="matrix(3.66103668349761 0 0 3.66103668349761 234.939538132685 263.23144437214)" fill="none" stroke="#394d42" stroke-width="3.00999999999976" stroke-linecap="square" stroke-linejoin="miter" stroke-miterlimit="2" d="M0 2.84217e-14L66.9986 0" sodipodi:nodetypes="cc"/><path id="shape2" transform="matrix(3.66103668349761 0 0 3.66103668349761 242.076805853635 299.47027505065)" fill="none" stroke="#394d42" stroke-width="3.00999999999976" stroke-linecap="square" stroke-linejoin="miter" stroke-miterlimit="2" d="M0 0L42.9571 0" sodipodi:nodetypes="cc"/><path id="shape3" transform="matrix(3.66103668349761 0 0 3.66103668349761 186.34517031825 520.122824782942)" fill="none" stroke="#394d42" stroke-width="3.00999999999976" stroke-linecap="square" stroke-linejoin="bevel" d="M0 19.0047C5.93741 18.8142 9.37142 11.875 9.3695 8.06247C9.36822 5.5208 9.34604 2.83331 9.30295 0" sodipodi:nodetypes="czc"/><path id="shape4" transform="matrix(3.66103668349761 0 0 3.66103668349761 151.318211620937 143.866880086535)" fill="none" stroke="#394d42" stroke-width="3.00999999999976" stroke-linecap="square" stroke-linejoin="miter" stroke-miterlimit="2" d="M110.511 10.9932L19.8248 10.862C18.8206 3.26121 16.0269 -0.350539 11.4438 0.0267655C4.56906 0.592722 4.13439 6.21794 5.15318 12.6372L18.4571 103.494C14.9828 103.348 11.7457 103.297 8.74573 103.341C4.24576 103.405 -0.00282687 106.22 1.4113e-06 111.845C0.00282969 117.47 3.06762 122.031 10.255 121.84L103.005 121.84C108.88 121.728 113.189 114.476 113.187 110.351C113.185 107.601 112.976 105.205 112.558 103.163L112.679 104.153L99.1983 12.4131" sodipodi:nodetypes="cczcczzcczccc"/><path id="shape5" transform="matrix(3.66103668349761 0 0 3.66103668349761 195.400021718331 140.75031207002)" fill="none" stroke="#394d42" stroke-width="3.00999999999976" stroke-linecap="square" stroke-linejoin="miter" stroke-miterlimit="2" d="M0 0.226721L89.8025 0.00479112C97.5805 -0.175903 99.7927 4.77273 99.4427 11.7556" sodipodi:nodetypes="ccc"/><path id="shape6" transform="matrix(3.66103668349761 0 0 3.66103668349761 343.494095655765 496.493004381505)" fill="none" stroke="#394d42" stroke-width="3.00999999999976" stroke-linecap="square" stroke-linejoin="miter" stroke-miterlimit="2" d="M0 0L2.50811 16.1237" sodipodi:nodetypes="cc"/><path id="shape7" transform="matrix(3.66103668349761 0 0 3.66103668349761 426.813815779409 493.705332808004)" fill="none" stroke="#394d42" stroke-width="3.00999999999976" stroke-linecap="square" stroke-linejoin="miter" stroke-miterlimit="2" d="M0 0L2.38355 16.9988" sodipodi:nodetypes="cc"/><path id="shape8" transform="matrix(3.66103668349761 0 0 3.66103668349761 356.714330147449 524.606137932951)" fill="none" stroke="#394d42" stroke-width="3.00999999999976" stroke-linecap="square" stroke-linejoin="bevel" d="M0 7.25484L9.62135 0L20.1251 7.49472" sodipodi:nodetypes="ccc"/><ellipse id="shape9" transform="matrix(3.66103668349761 0 0 3.66103668349761 345.116345957229 382.286478341597)" rx="9.49999999999924" ry="9.49999999999926" cx="9.49999999999924" cy="9.49999999999926" fill="none" stroke="#394d42" stroke-width="3.00999999999976" stroke-linecap="square" stroke-linejoin="bevel"/><path id="shape10" transform="matrix(3.23411632404721 0 0 3.23411632404721 303.91019793816 397.638748477863)" fill="none" stroke="#394d42" stroke-width="3.00999999999976" stroke-linecap="square" stroke-linejoin="bevel" d="M5.83117 0.000502998C-1.77028 -0.0840633 -2.20688 10.5228 6.10162 10.5186" sodipodi:nodetypes="cc"/><path id="shape01" transform="matrix(-3.23411630911022 0 0 3.23411630911022 456.391493107773 397.454773585589)" fill="none" stroke="#394d42" stroke-width="3.00999999999976" stroke-linecap="square" stroke-linejoin="bevel" d="M5.83117 0.000502998C-1.77028 -0.0840633 -2.20688 10.5228 6.10162 10.5186" sodipodi:nodetypes="cc"/><path id="shape01" transform="matrix(0 -3.23411616295513 -3.23411616295513 0 396.787718325851 493.372714116997)" fill="none" stroke="#394d42" stroke-width="3.00999999999976" stroke-linecap="square" stroke-linejoin="bevel" d="M5.83117 0.000502998C-1.77028 -0.0840633 -2.20688 10.5228 6.10162 10.5186" sodipodi:nodetypes="cc"/><path id="shape02" transform="matrix(0 3.23411599321156 3.23411599321156 0 361.499720774015 337.59311705578)" fill="none" stroke="#394d42" stroke-width="3.00999999999976" stroke-linecap="square" stroke-linejoin="bevel" d="M5.83117 0.000502998C-1.77028 -0.0840633 -2.20688 10.5228 6.10162 10.5186" sodipodi:nodetypes="cc"/><path id="shape03" transform="matrix(2.81320473268605 1.59542691884812 -1.59542691884812 2.81320473268605 321.197687382947 362.877347997856)" fill="none" stroke="#394d42" stroke-width="3.00999999999976" stroke-linecap="square" stroke-linejoin="bevel" d="M5.83117 0.000502998C-1.77028 -0.0840633 -2.20688 10.5228 6.10162 10.5186" sodipodi:nodetypes="cc"/><path id="shape04" transform="matrix(-2.8132047196931 -1.59542691147956 -1.59542691147956 2.8132047196931 453.924700424487 437.938096629515)" fill="none" stroke="#394d42" stroke-width="3.00999999999976" stroke-linecap="square" stroke-linejoin="bevel" d="M5.83117 0.000502998C-1.77028 -0.0840633 -2.20688 10.5228 6.10162 10.5186" sodipodi:nodetypes="cc"/><path id="shape011" transform="matrix(1.5954268393795 -2.8132045925596 -2.8132045925596 -1.5954268393795 354.760775051705 491.969342144324)" fill="none" stroke="#394d42" stroke-width="3.00999999999976" stroke-linecap="square" stroke-linejoin="bevel" d="M5.83117 0.000502998C-1.77028 -0.0840633 -2.20688 10.5228 6.10162 10.5186" sodipodi:nodetypes="cc"/><path id="shape021" transform="matrix(-1.59542675564305 2.81320444490771 2.81320444490771 1.59542675564305 400.913286103784 339.056072747221)" fill="none" stroke="#394d42" stroke-width="3.00999999999976" stroke-linecap="square" stroke-linejoin="bevel" d="M5.83117 0.000502998C-1.77028 -0.0840633 -2.20688 10.5228 6.10162 10.5186" sodipodi:nodetypes="cc"/><path id="shape05" transform="matrix(-2.81320461206476 1.59542685044128 1.59542685044128 2.81320461206476 436.370359944766 362.050004906712)" fill="none" stroke="#394d42" stroke-width="3.00999999999976" stroke-linecap="square" stroke-linejoin="bevel" d="M5.83117 0.000502998C-1.77028 -0.0840633 -2.20688 10.5228 6.10162 10.5186" sodipodi:nodetypes="cc"/><path id="shape011" transform="matrix(2.81320459907182 -1.59542684307272 1.59542684307272 2.81320459907182 303.643358837914 437.110746779033)" fill="none" stroke="#394d42" stroke-width="3.00999999999976" stroke-linecap="square" stroke-linejoin="bevel" d="M5.83117 0.000502998C-1.77028 -0.0840633 -2.20688 10.5228 6.10162 10.5186" sodipodi:nodetypes="cc"/><path id="shape012" transform="matrix(-1.59542677097268 -2.81320447193834 2.81320447193834 -1.59542677097268 402.807275066637 491.141988625201)" fill="none" stroke="#394d42" stroke-width="3.00999999999976" stroke-linecap="square" stroke-linejoin="bevel" d="M5.83117 0.000502998C-1.77028 -0.0840633 -2.20688 10.5228 6.10162 10.5186" sodipodi:nodetypes="cc"/><path id="shape021" transform="matrix(1.59542668723622 2.81320432428645 -2.81320432428645 1.59542668723622 356.654769533703 338.228732028708)" fill="none" stroke="#394d42" stroke-width="3.00999999999976" stroke-linecap="square" stroke-linejoin="bevel" d="M5.83117 0.000502998C-1.77028 -0.0840633 -2.20688 10.5228 6.10162 10.5186" sodipodi:nodetypes="cc"/>
</svg>
