<?xml version="1.0" standalone="no"?>
<!DOCTYPE svg PUBLIC "-//W3C//DTD SVG 20010904//EN" "http://www.w3.org/TR/2001/REC-SVG-20010904/DTD/svg10.dtd">
<!-- Created using Krita: https://krita.org -->
<svg xmlns="http://www.w3.org/2000/svg" 
    xmlns:xlink="http://www.w3.org/1999/xlink"
    xmlns:krita="http://krita.org/namespaces/svg/krita"
    xmlns:sodipodi="http://sodipodi.sourceforge.net/DTD/sodipodi-0.dtd"
    width="737.28pt"
    height="737.28pt"
    viewBox="0 0 737.28 737.28">
<defs/>
<path id="shape0" transform="matrix(3.9032754556506 0.00565680624262706 -0.00565680624262706 3.9032754556506 331.604031850925 456.430769128185)" fill="none" stroke="#394d42" stroke-width="3.00999999999976" stroke-linecap="square" stroke-linejoin="miter" stroke-miterlimit="2" d="M0 0L28.1261 36.9322" sodipodi:nodetypes="cc"/><path id="shape1" transform="matrix(3.9032754556506 0.00565680624262706 -0.00565680624262706 3.9032754556506 444.399545019772 602.569457707007)" fill="none" stroke="#394d42" stroke-width="3.00999999999976" stroke-linecap="square" stroke-linejoin="miter" stroke-miterlimit="2" d="M0 0.357109L6.74552 0" sodipodi:nodetypes="cc"/><path id="shape2" transform="matrix(3.9032754556506 0.00565680624262706 -0.00565680624262706 3.9032754556506 469.411828067606 536.365487519957)" fill="none" stroke="#394d42" stroke-width="3.00999999999976" stroke-linecap="square" stroke-linejoin="miter" stroke-miterlimit="2" d="M0.362086 16.9704L0 0" sodipodi:nodetypes="cc"/><path id="shape3" transform="matrix(3.9032754556506 0.00565680624262706 -0.00565680624262706 3.9032754556506 410.385039510741 488.710093501876)" fill="none" stroke="#394d42" stroke-width="3.00999999999976" stroke-linecap="square" stroke-linejoin="bevel" d="M0 3.51967C15.3819 17.2619 33.0055 14.5031 39.1232 0" sodipodi:nodetypes="cc"/><path id="shape4" transform="matrix(3.9032754556506 0.00565680624262706 -0.00565680624262706 3.9032754556506 208.200778313916 274.211549643574)" fill="none" stroke="#394d42" stroke-width="3.00999999999976" stroke-linecap="square" stroke-linejoin="miter" stroke-miterlimit="2" d="M67.3519 46.0146L17.3205 46.0146C6.24122 46.046 0.00349222 34.9155 1.04343e-05 27.8465C-0.00347135 20.7775 0.858201 12.8245 11.9351 7.3403C23.0119 1.85614 32.0183 8.6511 32.5381 10.4644C33.5711 -0.269978 45.6896 0.253977 50.7099 0.074675C55.7302 -0.104627 64.2128 -0.639155 68.3719 8.19495" sodipodi:nodetypes="cczzczc"/><path id="shape5" transform="matrix(3.9032754556506 0.00565680624262706 -0.00565680624262706 3.9032754556506 286.880631939994 151.079598662135)" fill="none" stroke="#394d42" stroke-width="3.00999999999976" stroke-linecap="square" stroke-linejoin="bevel" d="M0 57.2389C10.5045 66.1086 25.0041 65.3513 30.9987 54.5983C44.6286 64.3414 64.3781 63.4565 70.9946 46.4532C77.611 29.4498 74.3553 17.9515 64.35 7.4565C54.3447 -3.03847 39.4709 -0.655986 36.8481 3.72033C34.2253 8.09665 33.6027 12.972 36.8543 16.0953C40.1059 19.2187 44.4818 21.0915 49.1071 21.5892" sodipodi:nodetypes="cczzzzc"/><path id="shape6" transform="matrix(3.9032754556506 0.00565680624262706 -0.00565680624262706 3.9032754556506 472.595110891816 384.709662330227)" fill="none" stroke="#394d42" stroke-width="3.00999999999976" stroke-linecap="square" stroke-linejoin="bevel" d="M2.46559 9.92788C-8.65055 27.5585 21.0997 28.0435 26.7234 25.5407C32.3472 23.0379 34.9705 19.6615 35.8442 17.0361C36.7178 14.4107 37.4653 9.28528 36.2136 6.03591C34.962 2.78654 34.3361 1.03686 31.2107 0.288427C28.0854 -0.460002 25.5857 0.291255 23.4616 2.04232C22.0455 3.2097 21.2546 4.5851 21.0887 6.16852" sodipodi:nodetypes="czzzzzc"/><path id="shape7" transform="matrix(3.9032754556506 0.00565680624262706 -0.00565680624262706 3.9032754556506 575.899889565711 240.490350393325)" fill="none" stroke="#394d42" stroke-width="3.00999999999976" stroke-linecap="square" stroke-linejoin="bevel" d="M0 0C11.6308 11.8867 14.2577 15.5938 9.51892 38.4864" sodipodi:nodetypes="cc"/><path id="shape8" transform="matrix(3.9032754556506 0.00565680624262706 -0.00565680624262706 3.9032754556506 258.444972767209 193.893088276534)" fill="none" stroke="#394d42" stroke-width="3.00999999999976" stroke-linecap="square" stroke-linejoin="bevel" d="M0 8.01339C13.8798 17.6314 25.126 10.0008 26.621 0" sodipodi:nodetypes="cc"/><path id="shape9" transform="matrix(3.9032754556506 0.00565680624262706 -0.00565680624262706 3.9032754556506 118.285202244044 242.8092860909)" fill="none" stroke="#394d42" stroke-width="3.00999999999976" stroke-linecap="square" stroke-linejoin="bevel" d="M23.1604 36.0607C6.28555 36.4442 -0.468035 29.3226 0.0250513 15.5723C0.518138 1.82206 9.14182 -0.807278 16.1423 0.189202C20.8093 0.853522 23.5602 2.56047 24.3949 5.31005" sodipodi:nodetypes="czzc"/><path id="shape10" transform="matrix(3.9032754556506 0.00565680624262706 -0.00565680624262706 3.9032754556506 144.23088001653 160.578077084886)" fill="none" stroke="#394d42" stroke-width="3.00999999999976" stroke-linecap="square" stroke-linejoin="bevel" d="M0.401024 21.8956C-3.60589 8.14763 23.3865 -6.99095 38.0168 3.5017" sodipodi:nodetypes="cc"/><path id="shape11" transform="matrix(3.9032754556506 0.00565680624262706 -0.00565680624262706 3.9032754556506 266.797290407205 131.761460058249)" fill="none" stroke="#394d42" stroke-width="3.00999999999976" stroke-linecap="square" stroke-linejoin="bevel" d="M0 7.68319C4.61959 -3.06913 39.8704 -1.46185 44.3741 5.91088" sodipodi:nodetypes="cc"/>
</svg>
