<?xml version="1.0" standalone="no"?>
<!DOCTYPE svg PUBLIC "-//W3C//DTD SVG 20010904//EN" "http://www.w3.org/TR/2001/REC-SVG-20010904/DTD/svg10.dtd">
<!-- Created using Krita: https://krita.org -->
<svg xmlns="http://www.w3.org/2000/svg" 
    xmlns:xlink="http://www.w3.org/1999/xlink"
    xmlns:krita="http://krita.org/namespaces/svg/krita"
    xmlns:sodipodi="http://sodipodi.sourceforge.net/DTD/sodipodi-0.dtd"
    width="1100pt"
    height="1600pt"
    viewBox="0 0 1100 1600">
<defs/>
<path id="shape0" transform="translate(46.4999986428657, 673.499993606884)" fill="none" stroke="#faf8f0" stroke-width="49.999999999996" stroke-linecap="square" stroke-linejoin="bevel" d="M355.5 0C243.06 26.6969 162.56 61.1969 114 103.5C40 262.5 2 429.5 0 604.5C47 681.5 135.5 730 265.5 750L342 711C232.5 664.5 147 600 123 550.5C141 532.5 150 523.5 150 523.5C243 633 425.5 651 515.5 649.5" sodipodi:nodetypes="cccccccc"/><path id="shape1" transform="translate(134.999998827212, 721.309012108517)" fill="none" stroke="#faf8f0" stroke-width="49.999999999996" stroke-linecap="square" stroke-linejoin="bevel" d="M0 154.691C142.5 28.691 324.5 -2.80902 427 0.190981" sodipodi:nodetypes="cc"/><ellipse id="shape2" transform="translate(309.99999999995, 1016.99999999984)" rx="74.999999999994" ry="82.9999999999933" cx="74.999999999994" cy="82.9999999999933" fill="none" stroke="#faf8f0" stroke-width="49.999999999996" stroke-linecap="square" stroke-linejoin="bevel"/><path id="shape01" transform="matrix(-0.999999989962549 0 0 0.999999989962549 1045.32815799365 674.278163864645)" fill="none" stroke="#faf8f0" stroke-width="49.999999999996" stroke-linecap="square" stroke-linejoin="bevel" d="M355.5 0C243.06 26.6969 162.56 61.1969 114 103.5C40 262.5 2 429.5 0 604.5C47 681.5 135.5 730 265.5 750L342 711C232.5 664.5 147 600 123 550.5C141 532.5 150 523.5 150 523.5C243 633 426.828 652.722 516.828 649.222" sodipodi:nodetypes="cccccccc"/><path id="shape11" transform="matrix(-0.999999989962549 0 0 0.999999989962549 956.828158697604 721.973787083978)" fill="none" stroke="#faf8f0" stroke-width="49.999999999996" stroke-linecap="square" stroke-linejoin="bevel" d="M0 154.804C142.5 28.8044 328.732 -3.58471 427 0.304376" sodipodi:nodetypes="cc"/><ellipse id="shape21" transform="matrix(-0.999999989962549 0 0 0.999999989962549 781.828159281406 1017.77816680976)" rx="74.999999999994" ry="82.9999999999933" cx="74.999999999994" cy="82.9999999999933" fill="none" stroke="#faf8f0" stroke-width="49.999999999996" stroke-linecap="square" stroke-linejoin="bevel"/><path id="shape3" transform="translate(140.999994397154, 560.999977707824)" fill="none" stroke="#faf8f0" stroke-width="29.9999999999976" stroke-linecap="square" stroke-linejoin="bevel" d="M34.5 190.5C18.4765 111.091 6.97653 47.5909 0 0" sodipodi:nodetypes="cc"/><path id="shape4" transform="translate(481.999980727797, 395.999996066068)" fill="none" stroke="#faf8f0" stroke-width="29.9999999999976" stroke-linecap="square" stroke-linejoin="bevel" d="M0 318.5C100.813 262.137 150.147 155.97 148 0" sodipodi:nodetypes="cc"/><path id="shape5" transform="translate(714.999992897066, 393.999996085936)" fill="none" stroke="#faf8f0" stroke-width="29.9999999999976" stroke-linecap="square" stroke-linejoin="bevel" d="M121.5 317C50.0479 227.055 9.54789 121.389 0 0" sodipodi:nodetypes="cc"/><path id="shape6" transform="translate(465.99997327876, 441.999974654962)" fill="none" stroke="#faf8f0" stroke-width="29.9999999999976" stroke-linecap="square" stroke-linejoin="bevel" d="M84 210C30.4578 162.109 2.4578 92.1093 0 0" sodipodi:nodetypes="cc"/><path id="shape7" transform="translate(199.499992072568, 445.999974425595)" fill="none" stroke="#faf8f0" stroke-width="29.9999999999976" stroke-linecap="square" stroke-linejoin="bevel" d="M0 103C10.3333 162.333 50.5 209 120.5 243C181.016 189.036 205.682 108.036 194.5 0" sodipodi:nodetypes="ccc"/><path id="shape8" transform="translate(803.999968051854, 512.999979615176)" fill="none" stroke="#faf8f0" stroke-width="29.9999999999976" stroke-linecap="square" stroke-linejoin="bevel" d="M0 141C38.4667 88.6701 55.9904 41.6701 52.5711 0" sodipodi:nodetypes="cc"/><path id="shape9" transform="translate(922.49996334308, 502.49998003241)" fill="none" stroke="#faf8f0" stroke-width="29.9999999999976" stroke-linecap="square" stroke-linejoin="bevel" d="M0 249C33.5854 206.93 37.5854 123.93 12 0" sodipodi:nodetypes="cc"/><path id="shape10" transform="translate(397.499996051169, 353.999996483305)" fill="none" stroke="#faf8f0" stroke-width="29.9999999999976" stroke-linecap="square" stroke-linejoin="bevel" d="M0 13.5C177 45.5 359.5 41 547.5 0" sodipodi:nodetypes="cc"/><path id="shape11" transform="translate(389.999996125675, 140.721236065477)" fill="none" stroke="#faf8f0" stroke-width="29.9999999999976" stroke-linecap="square" stroke-linejoin="bevel" d="M0 229.779C18 -37.2212 483 -103.221 559.5 202.779" sodipodi:nodetypes="cc"/><path id="shape12" transform="translate(287.999956507489, 422.999975691639)" fill="none" stroke="#faf8f0" stroke-width="29.9999999999976" stroke-linecap="square" stroke-linejoin="bevel" d="M0 0C99.3333 15.3333 196.333 16.3333 291 3" sodipodi:nodetypes="cc"/><path id="shape13" transform="translate(282.999980515324, 255.999985320521)" fill="none" stroke="#faf8f0" stroke-width="29.9999999999976" stroke-linecap="square" stroke-linejoin="bevel" d="M0 160C6.25354 83.051 53.2535 29.7177 141 0" sodipodi:nodetypes="cc"/><path id="shape14" transform="translate(586.696665291305, 391.473064344391)" fill="none" stroke="#faf8f0" stroke-width="29.9999999999976" stroke-linecap="square" stroke-linejoin="bevel" d="M5.3033 32.5269L0 0" sodipodi:nodetypes="cc"/><path id="shape15" transform="translate(47.9999968226791, 524.999965248053)" fill="none" stroke="#faf8f0" stroke-width="29.9999999999976" stroke-linecap="square" stroke-linejoin="bevel" d="M0 12C73 35 151.5 31 235.5 0" sodipodi:nodetypes="cc"/><path id="shape16" transform="translate(37.4999975177181, 410.606532082051)" fill="none" stroke="#faf8f0" stroke-width="29.9999999999976" stroke-linecap="square" stroke-linejoin="bevel" d="M0 118.893C19.5 -14.6066 213 -58.1066 252 106.893" sodipodi:nodetypes="cc"/><path id="shape17" transform="translate(770.999971941877, 472.499982804847)" fill="none" stroke="#faf8f0" stroke-width="29.9999999999976" stroke-linecap="square" stroke-linejoin="bevel" d="M0 37.5C84 40.5 162.5 28 235.5 0" sodipodi:nodetypes="cc"/><path id="shape18" transform="translate(758.999972378579, 366.530368174226)" fill="none" stroke="#faf8f0" stroke-width="29.9999999999976" stroke-linecap="square" stroke-linejoin="bevel" d="M0 134.47C4.5 -42.5304 223.5 -35.0304 253.5 99.9696" sodipodi:nodetypes="cc"/><path id="shape19" transform="translate(141.999994832357, 312.99998860935)" fill="none" stroke="#faf8f0" stroke-width="29.9999999999976" stroke-linecap="square" stroke-linejoin="bevel" d="M0 0C36 14.6667 85 24 147 28" sodipodi:nodetypes="cc"/><path id="shape20" transform="translate(141.999994832357, 164.969602320863)" fill="none" stroke="#faf8f0" stroke-width="29.9999999999976" stroke-linecap="square" stroke-linejoin="bevel" d="M0 139.03C26 -25.9696 232 -34.9696 301 64.0304" sodipodi:nodetypes="cc"/><path id="shape21" transform="translate(266.999984689763, 357.999979471666)" fill="none" stroke="#faf8f0" stroke-width="29.9999999999976" stroke-linecap="square" stroke-linejoin="bevel" d="M0 0C28.4358 110.985 35.1024 208.985 20 294" sodipodi:nodetypes="cc"/><path id="shape22" transform="translate(348.999976520741, 442.999970196814)" fill="none" stroke="#faf8f0" stroke-width="29.9999999999976" stroke-linecap="square" stroke-linejoin="bevel" d="M0 0C8 71.3333 18 112.333 30 123" sodipodi:nodetypes="cc"/>
</svg>
