<?xml version="1.0" standalone="no"?>
<!DOCTYPE svg PUBLIC "-//W3C//DTD SVG 20010904//EN" "http://www.w3.org/TR/2001/REC-SVG-20010904/DTD/svg10.dtd">
<!-- Created using Krita: https://krita.org -->
<svg xmlns="http://www.w3.org/2000/svg" 
    xmlns:xlink="http://www.w3.org/1999/xlink"
    xmlns:krita="http://krita.org/namespaces/svg/krita"
    xmlns:sodipodi="http://sodipodi.sourceforge.net/DTD/sodipodi-0.dtd"
    width="1100pt"
    height="1600pt"
    viewBox="0 0 1100 1600">
<defs/>
<path id="shape0" transform="translate(34.4999986428704, 670.499993606939)" fill="none" stroke="#394d42" stroke-width="49.999999999996" stroke-linecap="square" stroke-linejoin="bevel" d="M355.5 0C243.06 26.6969 162.56 61.1969 114 103.5C40 262.5 2 429.5 0 604.5C47 681.5 135.5 730 265.5 750L342 711C232.5 664.5 147 600 123 550.5C141 532.5 150 523.5 150 523.5C243 633 425.5 651 515.5 649.5" sodipodi:nodetypes="cccccccc"/><path id="shape1" transform="translate(122.999998827224, 718.309012145332)" fill="none" stroke="#394d42" stroke-width="49.999999999996" stroke-linecap="square" stroke-linejoin="bevel" d="M0 154.691C142.5 28.691 324.5 -2.80902 427 0.190981" sodipodi:nodetypes="cc"/><ellipse id="shape2" transform="translate(297.999999999976, 1013.99999999992)" rx="74.999999999994" ry="82.9999999999933" cx="74.999999999994" cy="82.9999999999933" fill="none" stroke="#394d42" stroke-width="49.999999999996" stroke-linecap="square" stroke-linejoin="bevel"/><path id="shape0" transform="matrix(-0.99999998996263 0 0 0.99999998996263 1033.32815799373 671.278163864699)" fill="none" stroke="#394d42" stroke-width="49.999999999996" stroke-linecap="square" stroke-linejoin="bevel" d="M355.5 0C243.06 26.6969 162.56 61.1969 114 103.5C40 262.5 2 429.5 0 604.5C47 681.5 135.5 730 265.5 750L342 711C232.5 664.5 147 600 123 550.5C141 532.5 150 523.5 150 523.5C243 633 426.828 652.722 516.828 649.222" sodipodi:nodetypes="cccccccc"/><path id="shape1" transform="matrix(-0.99999998996263 0 0 0.99999998996263 944.828158697682 718.973786416151)" fill="none" stroke="#394d42" stroke-width="49.999999999996" stroke-linecap="square" stroke-linejoin="bevel" d="M0 154.804C142.5 28.8044 328.732 -3.58471 427 0.304377" sodipodi:nodetypes="cc"/><ellipse id="shape2" transform="matrix(-0.99999998996263 0 0 0.99999998996263 769.82815928147 1014.77816680984)" rx="74.999999999994" ry="82.9999999999933" cx="74.999999999994" cy="82.9999999999933" fill="none" stroke="#394d42" stroke-width="49.999999999996" stroke-linecap="square" stroke-linejoin="bevel"/><path id="shape3" transform="translate(128.999994397166, 557.999977707869)" fill="none" stroke="#394d42" stroke-width="29.9999999999976" stroke-linecap="square" stroke-linejoin="bevel" d="M34.5 190.5C18.4765 111.091 6.97653 47.5909 0 0" sodipodi:nodetypes="cc"/><path id="shape4" transform="translate(469.999980727837, 392.9999960661)" fill="none" stroke="#394d42" stroke-width="29.9999999999976" stroke-linecap="square" stroke-linejoin="bevel" d="M0 318.5C100.813 262.137 150.147 155.97 148 0" sodipodi:nodetypes="cc"/><path id="shape5" transform="translate(702.999992897125, 390.999996085968)" fill="none" stroke="#394d42" stroke-width="29.9999999999976" stroke-linecap="square" stroke-linejoin="bevel" d="M121.5 317C50.0479 227.055 9.54789 121.389 0 0" sodipodi:nodetypes="cc"/><path id="shape6" transform="translate(453.999973278799, 438.999974654998)" fill="none" stroke="#394d42" stroke-width="29.9999999999976" stroke-linecap="square" stroke-linejoin="bevel" d="M84 210C30.4578 162.109 2.4578 92.1093 0 0" sodipodi:nodetypes="cc"/><path id="shape7" transform="translate(187.499992072585, 442.999974425631)" fill="none" stroke="#394d42" stroke-width="29.9999999999976" stroke-linecap="square" stroke-linejoin="bevel" d="M0 103C10.3333 162.333 50.5 209 120.5 243C181.016 189.036 205.682 108.036 194.5 0" sodipodi:nodetypes="ccc"/><path id="shape8" transform="translate(791.99996805192, 509.999979615217)" fill="none" stroke="#394d42" stroke-width="29.9999999999976" stroke-linecap="square" stroke-linejoin="bevel" d="M0 141C38.4667 88.6701 55.9904 41.6701 52.5711 0" sodipodi:nodetypes="cc"/><path id="shape9" transform="translate(910.499963343155, 499.49998003245)" fill="none" stroke="#394d42" stroke-width="29.9999999999976" stroke-linecap="square" stroke-linejoin="bevel" d="M0 249C33.5854 206.93 37.5854 123.93 12 0" sodipodi:nodetypes="cc"/><path id="shape10" transform="translate(385.499996051201, 350.999996483333)" fill="none" stroke="#394d42" stroke-width="29.9999999999976" stroke-linecap="square" stroke-linejoin="bevel" d="M0 13.5C177 45.5 359.5 41 547.5 0" sodipodi:nodetypes="cc"/><path id="shape11" transform="translate(377.999996125707, 137.721134469265)" fill="none" stroke="#394d42" stroke-width="29.9999999999976" stroke-linecap="square" stroke-linejoin="bevel" d="M0 229.779C18 -37.2211 483 -103.221 559.5 202.779" sodipodi:nodetypes="cc"/><path id="shape12" transform="translate(275.999956507513, 419.999975691673)" fill="none" stroke="#394d42" stroke-width="29.9999999999976" stroke-linecap="square" stroke-linejoin="bevel" d="M0 0C99.3333 15.3333 196.333 16.3333 291 3" sodipodi:nodetypes="cc"/><path id="shape13" transform="translate(270.999980515348, 252.999985320542)" fill="none" stroke="#394d42" stroke-width="29.9999999999976" stroke-linecap="square" stroke-linejoin="bevel" d="M0 160C6.25354 83.051 53.2535 29.7177 141 0" sodipodi:nodetypes="cc"/><path id="shape14" transform="translate(574.696665291353, 388.473064344422)" fill="none" stroke="#394d42" stroke-width="29.9999999999976" stroke-linecap="square" stroke-linejoin="bevel" d="M5.3033 32.5269L0 0" sodipodi:nodetypes="cc"/><path id="shape15" transform="translate(35.999996822684, 521.999965248096)" fill="none" stroke="#394d42" stroke-width="29.9999999999976" stroke-linecap="square" stroke-linejoin="bevel" d="M0 12C73 35 151.5 31 235.5 0" sodipodi:nodetypes="cc"/><path id="shape16" transform="translate(25.499997517722, 407.606640889142)" fill="none" stroke="#394d42" stroke-width="29.9999999999976" stroke-linecap="square" stroke-linejoin="bevel" d="M0 118.893C19.5 -14.6067 213 -58.1067 252 106.893" sodipodi:nodetypes="cc"/><path id="shape17" transform="translate(758.99997194194, 469.499982804885)" fill="none" stroke="#394d42" stroke-width="29.9999999999976" stroke-linecap="square" stroke-linejoin="bevel" d="M0 37.5C84 40.5 162.5 28 235.5 0" sodipodi:nodetypes="cc"/><path id="shape18" transform="translate(746.999972378641, 363.530355536435)" fill="none" stroke="#394d42" stroke-width="29.9999999999976" stroke-linecap="square" stroke-linejoin="bevel" d="M0 134.47C4.5 -42.5304 223.5 -35.0304 253.5 99.9696" sodipodi:nodetypes="cc"/><path id="shape19" transform="translate(129.999994832369, 309.999988609375)" fill="none" stroke="#394d42" stroke-width="29.9999999999976" stroke-linecap="square" stroke-linejoin="bevel" d="M0 0C36 14.6667 85 24 147 28" sodipodi:nodetypes="cc"/><path id="shape20" transform="translate(129.999994832369, 161.969612899109)" fill="none" stroke="#394d42" stroke-width="29.9999999999976" stroke-linecap="square" stroke-linejoin="bevel" d="M0 139.03C26 -25.9696 232 -34.9696 301 64.0304" sodipodi:nodetypes="cc"/><path id="shape21" transform="translate(254.999984689785, 354.999979471695)" fill="none" stroke="#394d42" stroke-width="29.9999999999976" stroke-linecap="square" stroke-linejoin="bevel" d="M0 0C28.4358 110.985 35.1024 208.985 20 294" sodipodi:nodetypes="cc"/><path id="shape22" transform="translate(336.99997652077, 439.99997019685)" fill="none" stroke="#394d42" stroke-width="29.9999999999976" stroke-linecap="square" stroke-linejoin="bevel" d="M0 0C8 71.3333 18 112.333 30 123" sodipodi:nodetypes="cc"/>
</svg>
