<?xml version="1.0" standalone="no"?>
<!DOCTYPE svg PUBLIC "-//W3C//DTD SVG 20010904//EN" "http://www.w3.org/TR/2001/REC-SVG-20010904/DTD/svg10.dtd">
<!-- Created using Krita: https://krita.org -->
<svg xmlns="http://www.w3.org/2000/svg" 
    xmlns:xlink="http://www.w3.org/1999/xlink"
    xmlns:krita="http://krita.org/namespaces/svg/krita"
    xmlns:sodipodi="http://sodipodi.sourceforge.net/DTD/sodipodi-0.dtd"
    width="1100pt"
    height="1600pt"
    viewBox="0 0 1100 1600">
<defs/>
<ellipse id="shape0" transform="translate(83.9999999999932, 581.999999999954)" rx="451.999999999964" ry="451.999999999964" cx="451.999999999964" cy="451.999999999964" fill="none" stroke="#394d42" stroke-width="49.999999999996" stroke-linecap="square" stroke-linejoin="bevel"/><path id="shape1" transform="matrix(1.2668776470396 0 0 1.2668776470396 528.720463048211 794.239095222706)" fill="none" stroke="#394d42" stroke-width="99.999999999992" stroke-linecap="square" stroke-linejoin="bevel" d="M1.08072 485.257C0.792317 400.222 -0.444494 314.649 0.168186 216.411C0.268809 200.277 0.082428 189.587 0.875321 111.759C1.66821 33.9306 30.722 -1.29225 122.498 0.0361742" sodipodi:nodetypes="cczc"/><path id="shape2" transform="matrix(1.2668776470396 0 0 1.2668776470396 391.999996262338 1045.40617632837)" fill="none" stroke="#394d42" stroke-width="99.999999999992" stroke-linecap="square" stroke-linejoin="bevel" d="M0 0C158 0.666667 237 1 237 1" sodipodi:nodetypes="cc"/><path id="shape3" transform="translate(176.904758621094, 509.499995738056)" fill="none" stroke="#394d42" stroke-width="29.9999999999976" stroke-linecap="square" stroke-linejoin="bevel" d="M80.0952 151.5C22.0952 94.5 -4.40476 44 0.595239 0" sodipodi:nodetypes="cc"/><path id="shape4" transform="translate(245.99999032306, 352.499996638976)" fill="none" stroke="#394d42" stroke-width="29.9999999999976" stroke-linecap="square" stroke-linejoin="bevel" d="M0 318C67.5 198 19.5 111 10.5 0" sodipodi:nodetypes="cc"/><path id="shape5" transform="translate(316.499987549797, 353.999986074654)" fill="none" stroke="#394d42" stroke-width="29.9999999999976" stroke-linecap="square" stroke-linejoin="bevel" d="M105 223.5C18 126 10.5 114 0 0" sodipodi:nodetypes="cc"/><path id="shape6" transform="translate(391.499984599504, 340.499996753394)" fill="none" stroke="#394d42" stroke-width="29.9999999999976" stroke-linecap="square" stroke-linejoin="bevel" d="M0 256.5C89 209.5 127.5 124 115.5 0" sodipodi:nodetypes="cc"/><path id="shape7" transform="translate(583.499994436433, 341.999996739092)" fill="none" stroke="#394d42" stroke-width="29.9999999999976" stroke-linecap="square" stroke-linejoin="bevel" d="M117 259.5C41 204.5 1.99999 118 0 0" sodipodi:nodetypes="cc"/><path id="shape8" transform="translate(653.999974273502, 447.999995728412)" fill="none" stroke="#394d42" stroke-width="29.9999999999976" stroke-linecap="square" stroke-linejoin="bevel" d="M0 98C43.5821 77.4108 64.5821 44.7442 63 0" sodipodi:nodetypes="cc"/><path id="shape9" transform="matrix(0.992390180288904 -0.12313297716761 0.12313297716761 0.992390180288904 747.963294183431 460.918085699023)" fill="none" stroke="#394d42" stroke-width="29.9999999999976" stroke-linecap="square" stroke-linejoin="bevel" d="M20 180.5C-28.8478 128.454 28.6203 65.3344 17.1267 0" sodipodi:nodetypes="cc"/><path id="shape10" transform="translate(793.49996959063, 415.49998401304)" fill="none" stroke="#394d42" stroke-width="29.9999999999976" stroke-linecap="square" stroke-linejoin="bevel" d="M0 222C85 180 122 106 111 0" sodipodi:nodetypes="cc"/><path id="shape11" transform="translate(901.499965342218, 416.999983954034)" fill="none" stroke="#394d42" stroke-width="29.9999999999976" stroke-linecap="square" stroke-linejoin="bevel" d="M0 355.5C1.5 189 81 204 67.5 0" sodipodi:nodetypes="cc"/><path id="shape12" transform="translate(123.139040340382, 503.499995795265)" fill="none" stroke="#394d42" stroke-width="29.9999999999976" stroke-linecap="square" stroke-linejoin="bevel" d="M40.861 284.924C84.361 149.935 -23.639 160.541 4.86096 0" sodipodi:nodetypes="cc"/><path id="shape13" transform="translate(339.999986625374, 310.999987766151)" fill="none" stroke="#394d42" stroke-width="29.9999999999976" stroke-linecap="square" stroke-linejoin="bevel" d="M0 0C125 39 378 18 423 7" sodipodi:nodetypes="cc"/><path id="shape14" transform="translate(332.999986900734, 126.001001968236)" fill="none" stroke="#394d42" stroke-width="29.9999999999976" stroke-linecap="square" stroke-linejoin="bevel" d="M0 175.999C31 -36.001 385 -85.001 434 188.999" sodipodi:nodetypes="cc"/><path id="shape15" transform="translate(137.999994571476, 313.499987667809)" fill="none" stroke="#394d42" stroke-width="29.9999999999976" stroke-linecap="square" stroke-linejoin="bevel" d="M0 0C53 21 146.5 31 280.5 30" sodipodi:nodetypes="cc"/><path id="shape16" transform="translate(133.499994748493, 168.381911353985)" fill="none" stroke="#394d42" stroke-width="29.9999999999976" stroke-linecap="square" stroke-linejoin="bevel" d="M0 131.618C40.5 -42.3819 211.5 -9.38192 235.5 37.1181" sodipodi:nodetypes="cc"/><path id="shape17" transform="translate(31.9999987412122, 355.312968138907)" fill="none" stroke="#394d42" stroke-width="29.9999999999976" stroke-linecap="square" stroke-linejoin="bevel" d="M234 148.187C119 146.187 41 134.687 0 113.687C33 -21.313 219 -63.313 238.5 140.687" sodipodi:nodetypes="ccc"/><path id="shape18" transform="translate(787.499945552685, 391.499972931906)" fill="none" stroke="#394d42" stroke-width="29.9999999999976" stroke-linecap="square" stroke-linejoin="bevel" d="M0 4.5C69 22.5 157.5 21 265.5 0" sodipodi:nodetypes="cc"/><path id="shape19" transform="translate(782.999945863813, 232.152069957434)" fill="none" stroke="#394d42" stroke-width="29.9999999999976" stroke-linecap="square" stroke-linejoin="bevel" d="M271.5 153.348C237 -31.1521 49.5 -70.1521 0 153.348" sodipodi:nodetypes="cc"/><path id="shape20" transform="translate(631.99999397401, 430.999995890503)" fill="none" stroke="#394d42" stroke-width="29.9999999999976" stroke-linecap="square" stroke-linejoin="bevel" d="M0 0C50.6667 14 115.333 17 194 9" sodipodi:nodetypes="cc"/><path id="shape21" transform="translate(626.999994021684, 322.999996920261)" fill="none" stroke="#394d42" stroke-width="29.9999999999976" stroke-linecap="square" stroke-linejoin="bevel" d="M0 102C0 37.3333 31 3.33333 93 0" sodipodi:nodetypes="cc"/><path id="shape22" transform="translate(823.749992145713, 403.878784027887)" fill="none" stroke="#394d42" stroke-width="29.9999999999976" stroke-linecap="square" stroke-linejoin="bevel" d="M2.25 29.1212C0.25 8.45455 -0.416667 -1.21212 0.25 0.121212" sodipodi:nodetypes="cc"/><path id="shape23" transform="translate(760.999992744021, 324.999996901192)" fill="none" stroke="#394d42" stroke-width="29.9999999999976" stroke-linecap="square" stroke-linejoin="bevel" d="M26 13C9.33333 5 0.666667 0.666667 0 0" sodipodi:nodetypes="cc"/>
</svg>
