<?xml version="1.0" standalone="no"?>
<!DOCTYPE svg PUBLIC "-//W3C//DTD SVG 20010904//EN" "http://www.w3.org/TR/2001/REC-SVG-20010904/DTD/svg10.dtd">
<!-- Created using Krita: https://krita.org -->
<svg xmlns="http://www.w3.org/2000/svg" 
    xmlns:xlink="http://www.w3.org/1999/xlink"
    xmlns:krita="http://krita.org/namespaces/svg/krita"
    xmlns:sodipodi="http://sodipodi.sourceforge.net/DTD/sodipodi-0.dtd"
    width="1100pt"
    height="1600pt"
    viewBox="0 0 1100 1600">
<defs/>
<path id="shape0" transform="translate(94.8749935987241, 598.64861811773)" fill="none" stroke="#394d42" stroke-width="49.999999999996" stroke-linecap="square" stroke-linejoin="bevel" d="M215.625 2.85134C86.625 2.85134 2.625 80.3514 1.125 201.351C-0.375 322.351 -0.375 562.351 1.125 704.851C2.625 847.351 117.125 885.351 181.125 887.351C245.125 889.351 601.125 889.351 699.125 885.351C797.125 881.351 883.125 813.351 885.125 705.351C887.125 597.351 887.125 309.351 885.125 201.351C883.125 93.3513 813.125 3.35134 697.125 1.35134C581.125 -0.648658 581.125 -0.648658 215.625 2.85134Z" sodipodi:nodetypes="czzzzzzcc"/><path id="shape1" transform="translate(233.704449388786, 743.123261596217)" fill="none" stroke="#394d42" stroke-width="49.999999999996" stroke-linecap="square" stroke-linejoin="bevel" d="M168.296 2.37669C45.2955 11.3767 21.2955 74.3767 7.79553 143.377C-5.70446 212.377 1.79553 318.877 4.79553 428.377C7.79553 537.877 58.7955 588.877 150.296 597.877C241.796 606.877 394.796 609.877 462.296 597.877C529.795 585.877 589.795 555.877 600.295 453.877C610.795 351.877 607.795 236.877 597.295 146.377C586.795 55.8768 511.796 3.87669 426.296 2.37669C361.796 -2.12331 273.296 0.876688 168.296 2.37669Z" sodipodi:nodetypes="czzzzzzcc"/><ellipse id="shape2" transform="translate(671.751431293344, 827.206596198291)" rx="40.4818625700462" ry="41.5198590462014" cx="40.4818625700462" cy="41.5198590462014" fill="#394d42" fill-rule="evenodd" stroke="none" stroke-width="49.999999999996" stroke-linecap="square" stroke-linejoin="bevel"/><path id="shape3" transform="matrix(1.05392053664395 0 0 1.02368604902813 163.599307697461 439.52328241098)" fill="none" stroke="#394d42" stroke-width="29.9999999999976" stroke-linecap="square" stroke-linejoin="bevel" d="M10.8182 189C-3.60606 106.277 -3.60606 43.2773 10.8182 0" sodipodi:nodetypes="cc"/><path id="shape4" transform="matrix(1.05392053664395 0 0 1.02368604902813 231.114819060488 432.357462184616)" fill="none" stroke="#394d42" stroke-width="29.9999999999976" stroke-linecap="square" stroke-linejoin="bevel" d="M97.7569 169C13.0801 135.273 -16.5865 78.9401 8.75687 0" sodipodi:nodetypes="cc"/><path id="shape5" transform="matrix(1.05392053664395 0 0 1.02368604902813 360.490812159348 359.675775974468)" fill="none" stroke="#394d42" stroke-width="29.9999999999976" stroke-linecap="square" stroke-linejoin="bevel" d="M0 229C72.6797 185.526 97.6797 109.193 75 0" sodipodi:nodetypes="cc"/><path id="shape6" transform="matrix(1.05392053664395 0 0 1.02368604902813 511.771128360148 357.628412304287)" fill="none" stroke="#394d42" stroke-width="29.9999999999976" stroke-linecap="square" stroke-linejoin="bevel" d="M59.4595 226C2.41773 191.243 -13.5823 115.91 11.4595 0" sodipodi:nodetypes="cc"/><path id="shape7" transform="matrix(1.05392053664395 0 0 1.02368604902813 614.485670416954 433.381179344052)" fill="none" stroke="#394d42" stroke-width="29.9999999999976" stroke-linecap="square" stroke-linejoin="bevel" d="M0 163C52.188 125.84 67.8547 71.5068 47 0" sodipodi:nodetypes="cc"/><path id="shape8" transform="matrix(1.05392053664395 0 0 1.02368604902813 724.093423382527 421.096960776023)" fill="none" stroke="#394d42" stroke-width="29.9999999999976" stroke-linecap="square" stroke-linejoin="bevel" d="M48 172C16.0899 134.291 0.0898897 76.9577 0 0" sodipodi:nodetypes="cc"/><path id="shape9" transform="matrix(1.04566744665628 0.127859866582409 -0.131636197769511 1.0156697206732 39.6742768063031 380.120316871896)" fill="none" stroke="#394d42" stroke-width="29.9999999999976" stroke-linecap="square" stroke-linejoin="bevel" d="M0 6C97 40 305 17 335 0" sodipodi:nodetypes="cc"/><path id="shape10" transform="matrix(1.04566744665628 0.127859866582409 -0.131636197769511 1.0156697206732 49.5718179559019 229.989985315959)" fill="none" stroke="#394d42" stroke-width="29.9999999999976" stroke-linecap="square" stroke-linejoin="bevel" d="M0 148.681C55 -31.3188 274 -63.3188 347 138.681" sodipodi:nodetypes="cc"/><path id="shape11" transform="matrix(1.05392053664395 0 0 1.02368604902813 369.976087923436 321.7993836627)" fill="none" stroke="#394d42" stroke-width="29.9999999999976" stroke-linecap="square" stroke-linejoin="bevel" d="M0 14C47 37 239 22 301 0" sodipodi:nodetypes="cc"/><path id="shape12" transform="matrix(1.05392053664395 0 0 1.02368604902813 287.770291061794 114.374252620803)" fill="none" stroke="#394d42" stroke-width="29.9999999999976" stroke-linecap="square" stroke-linejoin="bevel" d="M385 198.626C343 -21.3743 116 -78.3743 0 128.626" sodipodi:nodetypes="cc"/><path id="shape13" transform="matrix(1.05392053664395 0 0 1.02368604902813 574.963655107278 364.794195108595)" fill="none" stroke="#394d42" stroke-width="29.9999999999976" stroke-linecap="square" stroke-linejoin="bevel" d="M0 52C68 71 218 31 244 0" sodipodi:nodetypes="cc"/><path id="shape14" transform="matrix(1.05392053664395 0 0 1.02368604902813 563.897454879106 346.36786969777)" fill="none" stroke="#394d42" stroke-width="29.9999999999976" stroke-linecap="square" stroke-linejoin="bevel" d="M0 65C0 43.3333 3.33334 21.6667 10 0" sodipodi:nodetypes="cc"/><path id="shape15" transform="matrix(1.05392053664395 0 0 1.02368604902813 676.666945445719 250.999141628238)" fill="none" stroke="#394d42" stroke-width="29.9999999999976" stroke-linecap="square" stroke-linejoin="bevel" d="M148 106.162C122 36.1621 70 -10.8379 0 2.16207" sodipodi:nodetypes="cc"/><path id="shape16" transform="matrix(1.05392053664395 0 0 1.02368604902813 798.921714966705 430.310095410864)" fill="none" stroke="#394d42" stroke-width="29.9999999999976" stroke-linecap="square" stroke-linejoin="bevel" d="M0 165C61.8681 117.768 85.8681 62.7683 72 0" sodipodi:nodetypes="cc"/><path id="shape17" transform="matrix(1.05392053664395 0 0 1.02368604902813 919.068675595667 442.594345690102)" fill="none" stroke="#394d42" stroke-width="29.9999999999976" stroke-linecap="square" stroke-linejoin="bevel" d="M0 172C18.8265 104.911 22.4932 47.5778 11 0" sodipodi:nodetypes="cc"/><path id="shape18" transform="matrix(1.05392053664395 0 0 1.02368604902813 799.975659429056 397.552155977623)" fill="none" stroke="#394d42" stroke-width="29.9999999999976" stroke-linecap="square" stroke-linejoin="bevel" d="M0 0C36 45 167 37 217 28" sodipodi:nodetypes="cc"/><path id="shape19" transform="matrix(1.05392053664395 0 0 1.02368604902813 815.784466884817 276.022948082314)" fill="none" stroke="#394d42" stroke-width="29.9999999999976" stroke-linecap="square" stroke-linejoin="bevel" d="M208 143.717C208 23.7173 88 -48.2827 0 37.7173" sodipodi:nodetypes="cc"/><ellipse id="shape20" transform="translate(393.999999999969, 903.999999999928)" rx="141.499999999989" ry="141.499999999989" cx="141.499999999989" cy="141.499999999989" fill="none" stroke="#394d42" stroke-width="49.999999999996" stroke-linecap="square" stroke-linejoin="bevel"/>
</svg>
