<?xml version="1.0" standalone="no"?>
<!DOCTYPE svg PUBLIC "-//W3C//DTD SVG 20010904//EN" "http://www.w3.org/TR/2001/REC-SVG-20010904/DTD/svg10.dtd">
<!-- Created using Krita: https://krita.org -->
<svg xmlns="http://www.w3.org/2000/svg" 
    xmlns:xlink="http://www.w3.org/1999/xlink"
    xmlns:krita="http://krita.org/namespaces/svg/krita"
    xmlns:sodipodi="http://sodipodi.sourceforge.net/DTD/sodipodi-0.dtd"
    width="737.28pt"
    height="737.28pt"
    viewBox="0 0 737.28 737.28">
<defs/>
<path id="shape0" transform="matrix(3.29458506397917 0 0 3.29458506397918 176.005871545494 191.050965160059)" fill="none" stroke="#394d42" stroke-width="3.00999999999976" stroke-linecap="square" stroke-linejoin="bevel" d="M29.2534 13.8166C14.587 14.3239 4.83585 12.0788 0 7.08127C21.3071 -4.0562 61.2049 -0.136261 71.7494 5.7952C65.5851 10.6316 55.8365 13.3032 42.5034 13.8099" sodipodi:nodetypes="cccc"/><path id="shape1" transform="matrix(3.29458506397917 0 0 3.29458506397918 176.829103589004 136.630153086483)" fill="none" stroke="#394d42" stroke-width="3.00999999999976" stroke-linecap="square" stroke-linejoin="bevel" d="M0 23.3494C1.42197 14.7426 6.46091 8.63757 13.7471 4.75017C21.0332 0.862771 28.9821 -0.212755 36.9822 0.0332231C44.9823 0.279201 52.888 1.842 59.422 7.15412C63.778 10.6955 67.5715 15.5806 70.8024 21.8095" sodipodi:nodetypes="czzzc"/><path id="shape2" transform="matrix(3.29458506397917 0 0 3.29458506397918 314.634209278478 193.718958948965)" fill="none" stroke="#394d42" stroke-width="3.00999999999976" stroke-linecap="square" stroke-linejoin="bevel" d="M0 0C0.0398473 79.25 2.96477 90.4988 26.7233 107.487" sodipodi:nodetypes="cc"/><path id="shape3" transform="matrix(3.29458506397917 0 0 3.29458506397918 272.088289850153 193.718958948965)" fill="none" stroke="#394d42" stroke-width="3.00999999999976" stroke-linecap="square" stroke-linejoin="bevel" d="M0.242318 0C0.020224 55.5001 -3.86242 108.259 29.8937 120.492C38.3942 121.488 42.1425 117.986 40.138 108.987" sodipodi:nodetypes="ccc"/><path id="shape4" transform="matrix(3.29458506397917 0 0 3.29458506397918 414.856147423443 195.957916361129)" fill="none" stroke="#394d42" stroke-width="3.00999999999976" stroke-linecap="square" stroke-linejoin="bevel" d="M0 1.30542C29.2476 -3.45929 47.9606 5.51087 48.9664 17.0104" sodipodi:nodetypes="cc"/><path id="shape5" transform="matrix(3.29458506397917 0 0 3.29458506397918 355.452156896259 231.393609282201)" fill="none" stroke="#394d42" stroke-width="3.00999999999976" stroke-linecap="square" stroke-linejoin="bevel" d="M0.334013 13.212C-0.769558 7.3461 0.861497 2.94209 5.22718 0" sodipodi:nodetypes="cc"/><path id="shape6" transform="matrix(3.29458506397917 0 0 3.29458506397918 489.853917592328 257.039997218281)" fill="none" stroke="#394d42" stroke-width="3.00999999999976" stroke-linecap="square" stroke-linejoin="bevel" d="M0 10.5038C11.9999 10.2478 23.7671 3.50101 25.7653 0" sodipodi:nodetypes="cc"/><path id="shape7" transform="matrix(3.29458506397917 0 0 3.29458506397918 357.240258286445 240.807172342639)" fill="none" stroke="#394d42" stroke-width="3.00999999999976" stroke-linecap="square" stroke-linejoin="bevel" d="M63.9963 4.16901C51.993 -2.57496 18.2433 -1.80799 0 11.4512C3.66893 15.9493 12.5863 17.4449 26.7523 15.9377" sodipodi:nodetypes="ccc"/><path id="shape8" transform="matrix(3.29458506397917 0 0 3.29458506397918 441.23822657846 250.48789736181)" fill="none" stroke="#394d42" stroke-width="3.00999999999976" stroke-linecap="square" stroke-linejoin="bevel" d="M0 0C1.16952 5.66608 1.7567 13.3325 1.76156 22.9991" sodipodi:nodetypes="cc"/><path id="shape9" transform="matrix(3.29458506397917 0 0 3.29458506397918 483.241283023857 244.701253268794)" fill="none" stroke="#394d42" stroke-width="3.00999999999976" stroke-linecap="square" stroke-linejoin="bevel" d="M0 0C1.33652 6.33266 1.81683 16.3186 1.44092 29.9577" sodipodi:nodetypes="cc"/><path id="shape10" transform="matrix(3.29458506397917 0 0 3.29458506397918 165.368438339269 373.349945356872)" fill="none" stroke="#394d42" stroke-width="3.00999999999976" stroke-linecap="square" stroke-linejoin="bevel" d="M0.00312379 0C-0.229907 33.7501 12.5026 64.1393 62.5036 66.1142" sodipodi:nodetypes="cc"/><path id="shape11" transform="matrix(3.29458506397917 0 0 3.29458506397918 200.795103011427 372.508491403924)" fill="none" stroke="#394d42" stroke-width="3.00999999999976" stroke-linecap="square" stroke-linejoin="bevel" d="M0 0C1.02049 40.7495 15.2722 44.2423 33.276 51.7333" sodipodi:nodetypes="cc"/><path id="shape12" transform="matrix(3.29458506397917 0 0 3.29458506397918 98.2494703043322 369.677261928144)" fill="none" stroke="#394d42" stroke-width="3.00999999999976" stroke-linecap="square" stroke-linejoin="bevel" d="M0 0C5.66771 2.08048 12.3767 3.45211 20.1271 4.11488" sodipodi:nodetypes="cc"/><path id="shape13" transform="matrix(3.29458506397917 0 0 3.29458506397918 97.0134760698097 309.992795224883)" fill="none" stroke="#394d42" stroke-width="3.00999999999976" stroke-linecap="square" stroke-linejoin="bevel" d="M52.5063 14.1952C51.1651 9.20888 46.7437 5.21762 39.2422 2.22139C27.9899 -2.27295 2.99045 -1.26038 0 17.7411C15.8343 19.5665 33.5549 18.8944 53.1619 15.725C44.7471 19.3125 37.5834 21.2883 31.6708 21.6524" sodipodi:nodetypes="czccc"/><path id="shape14" transform="matrix(3.29458506397917 0 0 3.29458506397918 321.25274846481 324.321563826259)" fill="none" stroke="#394d42" stroke-width="3.00999999999976" stroke-linecap="square" stroke-linejoin="bevel" d="M0.130899 18.4243C17.5748 22.1868 36.1941 19.9972 55.989 11.8555C41.6622 -3.87043 12.0109 -4.95206 0 14.6762" sodipodi:nodetypes="ccc"/><path id="shape15" transform="matrix(3.29458506397917 0 0 3.29458506397918 385.370574239134 393.828411631188)" fill="none" stroke="#394d42" stroke-width="3.00999999999976" stroke-linecap="square" stroke-linejoin="bevel" d="M1.22926 0C3.23563 12.6657 2.82587 26.4159 0 41.2506" sodipodi:nodetypes="cc"/><path id="shape16" transform="matrix(3.29458506397917 0 0 3.29458506397918 423.130784984092 374.75998215918)" fill="none" stroke="#394d42" stroke-width="3.00999999999976" stroke-linecap="square" stroke-linejoin="bevel" d="M18.9733 0C17.8177 22.0006 11.4933 39.6704 0 53.0096C5.74208 37.2567 3.61614 24.4019 2.85596 4.15227" sodipodi:nodetypes="ccc"/><path id="shape17" transform="matrix(3.29458506397917 0 0 3.29458506397918 408.082745298197 340.853754811579)" fill="none" stroke="#394d42" stroke-width="3.00999999999976" stroke-linecap="square" stroke-linejoin="bevel" d="M30.6667 0C38.4464 2.32927 43.5717 3.10193 46.0426 2.31797C45.5647 46.6416 38.4967 57.572 0 64.0913" sodipodi:nodetypes="ccc"/><path id="shape18" transform="matrix(3.29458506397917 0 0 3.29458506397918 394.005475986958 292.863716731909)" fill="none" stroke="#394d42" stroke-width="3.00999999999976" stroke-linecap="square" stroke-linejoin="bevel" d="M77.2584 13.1659C72.5943 4.88382 62.6005 -0.149479 54.7554 0.00338554C46.53 0.163661 38.9734 4.76024 33.549 13.4491C38.6428 15.7562 46.7374 15.1142 54.5862 15.0295C63.9737 14.9282 73.9471 14.558 77.0399 13.3845C69.7697 15.6774 64.1969 16.7337 60.3216 16.5533C60.8471 68.3721 48.4974 85.0894 0 90.3638" sodipodi:nodetypes="ccccccc"/><path id="shape19" transform="matrix(3.29458506397917 0 0 3.29458506397918 434.990081510198 385.401453214659)" fill="none" stroke="#394d42" stroke-width="3.00999999999976" stroke-linecap="square" stroke-linejoin="bevel" d="M2.71956 0C1.74974 3.6184 0.843221 6.92459 0 9.91858" sodipodi:nodetypes="cc"/><path id="shape20" transform="matrix(0.999999960263572 0 0 0.999999960263572 384.479998672086 586.079997975801)" fill="none" stroke="#394d42" stroke-width="2.1672" stroke-linecap="square" stroke-linejoin="bevel" d="M0 3.96C15.9119 3.96 33.6204 0 48.24 0" sodipodi:nodetypes="cc"/>
</svg>
