<?xml version="1.0" standalone="no"?>
<!DOCTYPE svg PUBLIC "-//W3C//DTD SVG 20010904//EN" "http://www.w3.org/TR/2001/REC-SVG-20010904/DTD/svg10.dtd">
<!-- Created using Krita: https://krita.org -->
<svg xmlns="http://www.w3.org/2000/svg" 
    xmlns:xlink="http://www.w3.org/1999/xlink"
    xmlns:krita="http://krita.org/namespaces/svg/krita"
    xmlns:sodipodi="http://sodipodi.sourceforge.net/DTD/sodipodi-0.dtd"
    width="360pt"
    height="360pt"
    viewBox="0 0 360 360">
<defs/>
<path id="shape0" transform="matrix(1.7629393829666 0 0 1.7629393829666 26.618655936592 39.3612053297747)" fill="#faf8f0" fill-rule="evenodd" stroke-opacity="0" stroke="#000000" stroke-width="0" stroke-linecap="square" stroke-linejoin="bevel" d="M70.9734 74.736C62.2727 54.6342 28.6697 46.8335 0.617197 46.9835C-0.582909 40.783 -0.0328591 35.7325 2.26734 31.8322C5.26761 39.3328 24.4693 45.6334 40.9708 45.4834C38.5706 40.5329 24.3193 24.3315 12.3182 22.0813C15.8185 15.9808 19.9189 12.3804 24.6193 11.2803C25.3694 20.8812 36.0203 33.7823 46.3712 38.8828C46.5213 16.3808 41.7208 10.5303 33.7701 6.02988C37.9705 1.7295 42.4709 -0.270676 47.2713 0.0293504C51.1717 28.2318 58.6723 52.684 78.4741 63.3349L96.4757 72.7439L79.5884 90.3525Z" sodipodi:nodetypes="ccccccccccccc"/><path id="shape1" transform="matrix(1.25016191509046 1.24300058490414 -1.24300058490414 1.25016191509046 172.157909372543 -28.7999982376692)" fill="#faf8f0" fill-rule="evenodd" stroke-opacity="0" stroke="#000000" stroke-width="0" stroke-linecap="square" stroke-linejoin="bevel" d="M70.9734 74.736C62.2727 54.6342 28.6697 46.8335 0.617197 46.9835C-0.582909 40.783 -0.0328591 35.7325 2.26734 31.8322C5.26761 39.3328 24.4693 45.6334 40.9708 45.4834C38.5706 40.5329 24.3193 24.3315 12.3182 22.0813C15.8185 15.9808 19.9189 12.3804 24.6193 11.2803C25.3694 20.8812 36.0203 33.7823 46.3712 38.8828C46.5213 16.3808 41.7208 10.5303 33.7701 6.02988C37.9705 1.7295 42.4709 -0.270676 47.2713 0.0293504C51.1717 28.2318 58.6723 52.684 78.4741 63.3349L96.4757 72.7439L79.5884 90.3525Z" sodipodi:nodetypes="ccccccccccccc"/><path id="shape2" transform="matrix(-0.019661854251577 1.76282973639034 -1.76282973639034 -0.0196618542515769 325.665665533657 28.2885863292902)" fill="#faf8f0" fill-rule="evenodd" stroke-opacity="0" stroke="#000000" stroke-width="0" stroke-linecap="square" stroke-linejoin="bevel" d="M70.9734 74.736C62.2727 54.6342 28.6697 46.8335 0.617197 46.9835C-0.582909 40.783 -0.0328591 35.7325 2.26734 31.8322C5.26761 39.3328 24.4693 45.6334 40.9708 45.4834C38.5706 40.5329 24.3193 24.3315 12.3182 22.0813C15.8185 15.9808 19.9189 12.3804 24.6193 11.2803C25.3694 20.8812 36.0203 33.7823 46.3712 38.8828C46.5213 16.3808 41.7208 10.5303 33.7701 6.02988C37.9705 1.7295 42.4709 -0.270676 47.2713 0.0293504C51.1717 28.2318 58.6723 52.684 78.4741 63.3349L96.4757 72.7439L79.5884 90.3525Z" sodipodi:nodetypes="ccccccccccccc"/><path id="shape3" transform="matrix(-1.26175221663129 1.23123377627512 -1.23123377627512 -1.26175221663128 391.693850568708 175.410739486013)" fill="#faf8f0" fill-rule="evenodd" stroke-opacity="0" stroke="#000000" stroke-width="0" stroke-linecap="square" stroke-linejoin="bevel" d="M70.9734 74.736C62.2727 54.6342 28.6697 46.8335 0.617197 46.9835C-0.582909 40.783 -0.0328591 35.7325 2.26734 31.8322C5.26761 39.3328 24.4693 45.6334 40.9708 45.4834C38.5706 40.5329 24.3193 24.3315 12.3182 22.0813C15.8185 15.9808 19.9189 12.3804 24.6193 11.2803C25.3694 20.8812 36.0203 33.7823 46.3712 38.8828C46.5213 16.3808 41.7208 10.5303 33.7701 6.02988C37.9705 1.7295 42.4709 -0.270676 47.2713 0.0293504C51.1717 28.2318 58.6723 52.684 78.4741 63.3349L96.4757 72.7439L79.5884 90.3525Z" sodipodi:nodetypes="ccccccccccccc"/><path id="shape4" transform="matrix(-1.76293869361794 -0.00155902511802936 0.00155902511802936 -1.76293869361794 335.964321603297 324.150600443909)" fill="#faf8f0" fill-rule="evenodd" stroke-opacity="0" stroke="#000000" stroke-width="0" stroke-linecap="square" stroke-linejoin="bevel" d="M70.9734 74.736C62.2727 54.6342 28.6697 46.8335 0.617197 46.9835C-0.582909 40.783 -0.0328591 35.7325 2.26734 31.8322C5.26761 39.3328 24.4693 45.6334 40.9708 45.4834C38.5706 40.5329 24.3193 24.3315 12.3182 22.0813C15.8185 15.9808 19.9189 12.3804 24.6193 11.2803C25.3694 20.8812 36.0203 33.7823 46.3712 38.8828C46.5213 16.3808 41.7208 10.5303 33.7701 6.02988C37.9705 1.7295 42.4709 -0.270676 47.2713 0.0293504C51.1717 28.2318 58.6723 52.684 78.4741 63.3349L96.4757 72.7439L79.5884 90.3525Z" sodipodi:nodetypes="ccccccccccccc"/><path id="shape5" transform="matrix(-1.24577010974847 -1.24740214112047 1.24740214112047 -1.24577010974847 189.806840952516 391.6799760323)" fill="#faf8f0" fill-rule="evenodd" stroke-opacity="0" stroke="#000000" stroke-width="0" stroke-linecap="square" stroke-linejoin="bevel" d="M70.9734 74.736C62.2727 54.6342 28.6697 46.8335 0.617197 46.9835C-0.582909 40.783 -0.0328591 35.7325 2.26734 31.8322C5.26761 39.3328 24.4693 45.6334 40.9708 45.4834C38.5706 40.5329 24.3193 24.3315 12.3182 22.0813C15.8185 15.9808 19.9189 12.3804 24.6193 11.2803C25.3694 20.8812 36.0203 33.7823 46.3712 38.8828C46.5213 16.3808 41.7208 10.5303 33.7701 6.02988C37.9705 1.7295 42.4709 -0.270676 47.2713 0.0293504C51.1717 28.2318 58.6723 52.684 78.4741 63.3349L96.4757 72.7439L79.5884 90.3525Z" sodipodi:nodetypes="ccccccccccccc"/><path id="shape6" transform="matrix(-0.00137408435608727 -1.76293884746659 1.76293884746659 -0.00137408435608727 38.8742117508758 336.271360212891)" fill="#faf8f0" fill-rule="evenodd" stroke-opacity="0" stroke="#000000" stroke-width="0" stroke-linecap="square" stroke-linejoin="bevel" d="M70.9734 74.736C62.2727 54.6342 28.6697 46.8335 0.617197 46.9835C-0.582909 40.783 -0.0328591 35.7325 2.26734 31.8322C5.26761 39.3328 24.4693 45.6334 40.9708 45.4834C38.5706 40.5329 24.3193 24.3315 12.3182 22.0813C15.8185 15.9808 19.9189 12.3804 24.6193 11.2803C25.3694 20.8812 36.0203 33.7823 46.3712 38.8828C46.5213 16.3808 41.7208 10.5303 33.7701 6.02988C37.9705 1.7295 42.4709 -0.270676 47.2713 0.0293504C51.1717 28.2318 58.6723 52.684 78.4741 63.3349L96.4757 72.7439L79.5884 90.3525Z" sodipodi:nodetypes="ccccccccccccc"/><path id="shape7" transform="matrix(1.23605824617516 -1.25702636411375 1.25702636411375 1.23605824617516 -28.8136840063082 191.782108541959)" fill="#faf8f0" fill-rule="evenodd" stroke-opacity="0" stroke="#000000" stroke-width="0" stroke-linecap="square" stroke-linejoin="bevel" d="M70.9734 74.736C62.2727 54.6342 28.6697 46.8335 0.617197 46.9835C-0.582909 40.783 -0.0328591 35.7325 2.26734 31.8322C5.26761 39.3328 24.4693 45.6334 40.9708 45.4834C38.5706 40.5329 24.3193 24.3315 12.3182 22.0813C15.8185 15.9808 19.9189 12.3804 24.6193 11.2803C25.3694 20.8812 36.0203 33.7823 46.3712 38.8828C46.5213 16.3808 41.7208 10.5303 33.7701 6.02988C37.9705 1.7295 42.4709 -0.270676 47.2713 0.0293504C51.1717 28.2318 58.6723 52.684 78.4741 63.3349L96.4757 72.7439L79.5884 90.3525Z" sodipodi:nodetypes="ccccccccccccc"/>
</svg>
