<?xml version="1.0" standalone="no"?>
<!DOCTYPE svg PUBLIC "-//W3C//DTD SVG 20010904//EN" "http://www.w3.org/TR/2001/REC-SVG-20010904/DTD/svg10.dtd">
<!-- Created using Krita: https://krita.org -->
<svg xmlns="http://www.w3.org/2000/svg" 
    xmlns:xlink="http://www.w3.org/1999/xlink"
    xmlns:krita="http://krita.org/namespaces/svg/krita"
    xmlns:sodipodi="http://sodipodi.sourceforge.net/DTD/sodipodi-0.dtd"
    width="367.2pt"
    height="367.2pt"
    viewBox="0 0 367.2 367.2">
<defs/>
<circle id="shape0" transform="matrix(0.999999973300457 0 0 0.999999973300457 5.35999976077212 5.16000586695752)" r="175.32" cx="175.32" cy="175.32" fill="#faf8f0" fill-rule="evenodd" stroke="#394d42" stroke-width="7.92" stroke-linecap="square" stroke-linejoin="bevel"/><path id="shape01" transform="matrix(1.69048992303406 0 0 1.69048992303406 32.1291159308561 45.3479960671688)" fill="#394d42" fill-rule="evenodd" stroke="none" stroke-width="1" stroke-linecap="square" stroke-linejoin="bevel" d="M70.9734 74.736C62.2727 54.6342 28.6697 46.8335 0.617197 46.9835C-0.582909 40.783 -0.0328589 35.7325 2.26734 31.8322C5.26761 39.3328 24.4693 45.6334 40.9708 45.4834C38.5706 40.5329 24.3193 24.3315 12.3182 22.0813C15.8185 15.9808 19.9189 12.3804 24.6193 11.2803C25.3694 20.8812 36.0203 33.7823 46.3712 38.8828C46.5213 16.3808 41.7208 10.5303 33.7701 6.02988C37.9705 1.7295 42.4709 -0.270676 47.2713 0.0293504C51.1717 28.2318 58.6723 52.684 78.4741 63.3349L96.4757 72.7439L79.5884 90.3525Z" sodipodi:nodetypes="ccccccccccccc"/><path id="shape1" transform="matrix(1.19878547160542 1.19191844223818 -1.19191844223818 1.19878547160542 171.687312819197 -20.0120663666253)" fill="#394d42" fill-rule="evenodd" stroke="none" stroke-width="0" stroke-linecap="square" stroke-linejoin="bevel" d="M70.9734 74.736C62.2727 54.6342 28.6697 46.8335 0.617197 46.9835C-0.582909 40.783 -0.0328589 35.7325 2.26734 31.8322C5.26761 39.3328 24.4693 45.6334 40.9708 45.4834C38.5706 40.5329 24.3193 24.3315 12.3182 22.0813C15.8185 15.9808 19.9189 12.3804 24.6193 11.2803C25.3694 20.8812 36.0203 33.7823 46.3712 38.8828C46.5213 16.3808 41.7208 10.5303 33.7701 6.02988C37.9705 1.7295 42.4709 -0.270676 47.2713 0.0293504C51.1717 28.2318 58.6723 52.684 78.4741 63.3349L96.4757 72.7439L79.5884 90.3525Z" sodipodi:nodetypes="ccccccccccccc"/><path id="shape2" transform="matrix(-0.0188538340011008 1.69038478247503 -1.69038478247503 -0.0188538340011007 318.886540309789 34.7304152667355)" fill="#394d42" fill-rule="evenodd" stroke="none" stroke-width="1" stroke-linecap="square" stroke-linejoin="bevel" d="M70.9734 74.736C62.2727 54.6342 28.6697 46.8335 0.617197 46.9835C-0.582909 40.783 -0.0328589 35.7325 2.26734 31.8322C5.26761 39.3328 24.4693 45.6334 40.9708 45.4834C38.5706 40.5329 24.3193 24.3315 12.3182 22.0813C15.8185 15.9808 19.9189 12.3804 24.6193 11.2803C25.3694 20.8812 36.0203 33.7823 46.3712 38.8828C46.5213 16.3808 41.7208 10.5303 33.7701 6.02988C37.9705 1.7295 42.4709 -0.270676 47.2713 0.0293504C51.1717 28.2318 58.6723 52.684 78.4741 63.3349L96.4757 72.7439L79.5884 90.3525Z" sodipodi:nodetypes="ccccccccccccc"/><path id="shape3" transform="matrix(-1.2098994600664 1.18063520039458 -1.18063520039458 -1.20989946006639 382.201242381207 175.806461298736)" fill="#394d42" fill-rule="evenodd" stroke="none" stroke-width="1" stroke-linecap="square" stroke-linejoin="bevel" d="M70.9734 74.736C62.2727 54.6342 28.6697 46.8335 0.617197 46.9835C-0.582909 40.783 -0.0328589 35.7325 2.26734 31.8322C5.26761 39.3328 24.4693 45.6334 40.9708 45.4834C38.5706 40.5329 24.3193 24.3315 12.3182 22.0813C15.8185 15.9808 19.9189 12.3804 24.6193 11.2803C25.3694 20.8812 36.0203 33.7823 46.3712 38.8828C46.5213 16.3808 41.7208 10.5303 33.7701 6.02988C37.9705 1.7295 42.4709 -0.270676 47.2713 0.0293504C51.1717 28.2318 58.6723 52.684 78.4741 63.3349L96.4757 72.7439L79.5884 90.3525Z" sodipodi:nodetypes="ccccccccccccc"/><path id="shape4" transform="matrix(-1.69048926201476 -0.00149495568438133 0.00149495568438133 -1.69048926201476 328.76196482644 318.433734197839)" fill="#394d42" fill-rule="evenodd" stroke="none" stroke-width="1" stroke-linecap="square" stroke-linejoin="bevel" d="M70.9734 74.736C62.2727 54.6342 28.6697 46.8335 0.617197 46.9835C-0.582909 40.783 -0.0328589 35.7325 2.26734 31.8322C5.26761 39.3328 24.4693 45.6334 40.9708 45.4834C38.5706 40.5329 24.3193 24.3315 12.3182 22.0813C15.8185 15.9808 19.9189 12.3804 24.6193 11.2803C25.3694 20.8812 36.0203 33.7823 46.3712 38.8828C46.5213 16.3808 41.7208 10.5303 33.7701 6.02988C37.9705 1.7295 42.4709 -0.270676 47.2713 0.0293504C51.1717 28.2318 58.6723 52.684 78.4741 63.3349L96.4757 72.7439L79.5884 90.3525Z" sodipodi:nodetypes="ccccccccccccc"/><path id="shape5" transform="matrix(-1.19457415115601 -1.19613911284165 1.19613911284165 -1.19457415115601 188.610947283987 383.18793414923)" fill="#394d42" fill-rule="evenodd" stroke="none" stroke-width="1" stroke-linecap="square" stroke-linejoin="bevel" d="M70.9734 74.736C62.2727 54.6342 28.6697 46.8335 0.617197 46.9835C-0.582909 40.783 -0.0328589 35.7325 2.26734 31.8322C5.26761 39.3328 24.4693 45.6334 40.9708 45.4834C38.5706 40.5329 24.3193 24.3315 12.3182 22.0813C15.8185 15.9808 19.9189 12.3804 24.6193 11.2803C25.3694 20.8812 36.0203 33.7823 46.3712 38.8828C46.5213 16.3808 41.7208 10.5303 33.7701 6.02988C37.9705 1.7295 42.4709 -0.270676 47.2713 0.0293504C51.1717 28.2318 58.6723 52.684 78.4741 63.3349L96.4757 72.7439L79.5884 90.3525Z" sodipodi:nodetypes="ccccccccccccc"/><path id="shape6" transform="matrix(-0.00131761521684055 -1.69048940954087 1.69048940954087 -0.00131761521684055 43.8810197734506 330.056381550217)" fill="#394d42" fill-rule="evenodd" stroke="none" stroke-width="1" stroke-linecap="square" stroke-linejoin="bevel" d="M70.9734 74.736C62.2727 54.6342 28.6697 46.8335 0.617197 46.9835C-0.582909 40.783 -0.0328589 35.7325 2.26734 31.8322C5.26761 39.3328 24.4693 45.6334 40.9708 45.4834C38.5706 40.5329 24.3193 24.3315 12.3182 22.0813C15.8185 15.9808 19.9189 12.3804 24.6193 11.2803C25.3694 20.8812 36.0203 33.7823 46.3712 38.8828C46.5213 16.3808 41.7208 10.5303 33.7701 6.02988C37.9705 1.7295 42.4709 -0.270676 47.2713 0.0293504C51.1717 28.2318 58.6723 52.684 78.4741 63.3349L96.4757 72.7439L79.5884 90.3525Z" sodipodi:nodetypes="ccccccccccccc"/><path id="shape7" transform="matrix(1.18526140469224 -1.2053678203879 1.2053678203879 1.18526140469224 -21.0251858272386 191.505035732432)" fill="#394d42" fill-rule="evenodd" stroke="none" stroke-width="1" stroke-linecap="square" stroke-linejoin="bevel" d="M70.9734 74.736C62.2727 54.6342 28.6697 46.8335 0.617197 46.9835C-0.582909 40.783 -0.0328589 35.7325 2.26734 31.8322C5.26761 39.3328 24.4693 45.6334 40.9708 45.4834C38.5706 40.5329 24.3193 24.3315 12.3182 22.0813C15.8185 15.9808 19.9189 12.3804 24.6193 11.2803C25.3694 20.8812 36.0203 33.7823 46.3712 38.8828C46.5213 16.3808 41.7208 10.5303 33.7701 6.02988C37.9705 1.7295 42.4709 -0.270676 47.2713 0.0293504C51.1717 28.2318 58.6723 52.684 78.4741 63.3349L96.4757 72.7439L79.5884 90.3525Z" sodipodi:nodetypes="ccccccccccccc"/>
</svg>
