<?xml version="1.0" standalone="no"?>
<!DOCTYPE svg PUBLIC "-//W3C//DTD SVG 20010904//EN" "http://www.w3.org/TR/2001/REC-SVG-20010904/DTD/svg10.dtd">
<!-- Created using Krita: https://krita.org -->
<svg xmlns="http://www.w3.org/2000/svg" 
    xmlns:xlink="http://www.w3.org/1999/xlink"
    xmlns:krita="http://krita.org/namespaces/svg/krita"
    xmlns:sodipodi="http://sodipodi.sourceforge.net/DTD/sodipodi-0.dtd"
    width="737.28pt"
    height="737.28pt"
    viewBox="0 0 737.28 737.28">
<defs/>
<path id="shape0" transform="matrix(3.83777051460095 0 0 3.83777051460095 341.6174183557 308.631069902663)" fill="none" stroke="#394d42" stroke-width="3.00999999999976" stroke-linecap="square" stroke-linejoin="miter" stroke-miterlimit="2" d="M0 61.261L0.0315878 5.2034C-0.00191329 -1.85581 8.18587 -1.29743 8.50117 4.26491" sodipodi:nodetypes="ccc"/><path id="shape1" transform="matrix(3.83777051460095 0 0 3.83777051460095 374.35993250696 329.907743862961)" fill="none" stroke="#394d42" stroke-width="3.00999999999976" stroke-linecap="square" stroke-linejoin="miter" stroke-miterlimit="2" d="M0 55.7679L0 0" sodipodi:nodetypes="cc"/><path id="shape0" transform="matrix(-3.837770508909 0 0 3.837770508909 538.694725520596 159.314920268027)" fill="none" stroke="#394d42" stroke-width="3.00999999999976" stroke-linecap="square" stroke-linejoin="miter" stroke-miterlimit="2" d="M43.8423 0L43.8423 19.3205C36.7712 19.1473 34.6469 13.1379 34.5563 8.89533C34.4973 8.77751 26.8076 8.8403 11.4871 9.08371C3.35525 8.91102 -0.090431 11.8296 0.0018008 19.3425L20.8558 19.3425C35.4454 19.1479 28.3944 27.3502 38.6497 31.9413C42.8047 33.605 52.4296 33.3501 55.9288 31.8484" sodipodi:nodetypes="cccccccc"/><path id="shape2" transform="matrix(3.83777051460095 0 0 3.83777051460095 174.571254911691 160.09452558336)" fill="none" stroke="#394d42" stroke-width="3.00999999999976" stroke-linecap="square" stroke-linejoin="miter" stroke-miterlimit="2" d="M43.8423 0L43.8423 19.3205C36.7712 19.1473 34.6469 13.1379 34.5563 8.89533C34.4973 8.77751 26.8076 8.8403 11.4871 9.08371C3.35525 8.91102 -0.090431 11.8296 0.0018008 19.3425L20.8558 19.3425C35.4454 19.1479 28.2898 26.8413 38.5451 31.4324C42.7001 33.0961 52.4313 33.2133 55.9305 31.7116" sodipodi:nodetypes="cccccccc"/><path id="shape3" transform="matrix(3.83777051460095 0 0 3.83777051460095 242.602983663543 545.71575494093)" fill="none" stroke="#394d42" stroke-width="3.00999999999976" stroke-linecap="square" stroke-linejoin="miter" stroke-miterlimit="2" d="M11.5892 0.0187295C2.83921 0.023129 -0.0335856 4.39957 0.000295612 13.8706L60.105 13.8706C60.3396 0.744218 55.2146 0.746795 48.8392 0" sodipodi:nodetypes="cccc"/><path id="shape4" transform="matrix(3.83777051460095 0 0 3.83777051460095 280.314686639483 545.925555426743)" fill="none" stroke="#394d42" stroke-width="3.00999999999976" stroke-linecap="square" stroke-linejoin="miter" stroke-miterlimit="2" d="M0 0L40.4897 0" sodipodi:nodetypes="cc"/><path id="shape5" transform="matrix(3.83777051460095 0 0 3.83777051460095 112.404220179631 432.661205199811)" fill="none" stroke="#394d42" stroke-width="3.00999999999976" stroke-linecap="square" stroke-linejoin="miter" stroke-miterlimit="2" d="M38.8777 0L0 0C8.00611 11.996 25.5081 15.9872 38.5006 1.10566" sodipodi:nodetypes="ccc"/><path id="shape01" transform="matrix(3.83777036288618 0 0 3.83777036288618 454.295889699835 432.720030695896)" fill="none" stroke="#394d42" stroke-width="3.00999999999976" stroke-linecap="square" stroke-linejoin="miter" stroke-miterlimit="2" d="M38.7475 9.9698e-14C38.7475 9.9698e-14 25.8317 0.0296759 0 0.0890276C8.00611 12.085 25.5081 16.0762 38.5006 1.19469" sodipodi:nodetypes="ccc"/><ellipse id="shape6" transform="matrix(3.83777051460095 0 0 3.83777051460095 326.808830391594 98.4163223363804)" rx="7.99999999999932" ry="7.99999999999936" cx="7.99999999999932" cy="7.99999999999936" fill="none" stroke="#394d42" stroke-width="3.00999999999976" stroke-linecap="square" stroke-linejoin="bevel"/><path id="shape7" transform="matrix(3.83777051460095 0 0 3.83777051460095 139.267627754164 251.121905907741)" fill="none" stroke="#394d42" stroke-width="3.00999999999976" stroke-linecap="square" stroke-linejoin="miter" stroke-miterlimit="2" d="M0 46.6748L11.8336 0" sodipodi:nodetypes="cc"/><path id="shape8" transform="matrix(3.83777051460095 0 0 3.83777051460095 187.227739199358 251.121909884661)" fill="none" stroke="#394d42" stroke-width="3.00999999999976" stroke-linecap="square" stroke-linejoin="miter" stroke-miterlimit="2" d="M0 0L11.3756 46.862" sodipodi:nodetypes="cc"/><path id="shape9" transform="matrix(3.83777051460095 0 0 3.83777051460095 482.344787701682 253.794774247117)" fill="none" stroke="#394d42" stroke-width="3.00999999999976" stroke-linecap="square" stroke-linejoin="miter" stroke-miterlimit="2" d="M0 46.4174L11.6522 0" sodipodi:nodetypes="cc"/><path id="shape10" transform="matrix(3.83777051460095 0 0 3.83777051460095 529.481575159482 253.794774247116)" fill="none" stroke="#394d42" stroke-width="3.00999999999976" stroke-linecap="square" stroke-linejoin="miter" stroke-miterlimit="2" d="M0 0L11.6991 46.0594" sodipodi:nodetypes="cc"/>
</svg>
