<?xml version="1.0" standalone="no"?>
<!DOCTYPE svg PUBLIC "-//W3C//DTD SVG 20010904//EN" "http://www.w3.org/TR/2001/REC-SVG-20010904/DTD/svg10.dtd">
<!-- Created using Krita: https://krita.org -->
<svg xmlns="http://www.w3.org/2000/svg" 
    xmlns:xlink="http://www.w3.org/1999/xlink"
    xmlns:krita="http://krita.org/namespaces/svg/krita"
    xmlns:sodipodi="http://sodipodi.sourceforge.net/DTD/sodipodi-0.dtd"
    width="396pt"
    height="396pt"
    viewBox="0 0 396 396">
<defs/>
<circle id="shape0" transform="matrix(3.98986399474666e-16 1.00000000000001 -1.00000000000001 3.98986399474666e-16 264.482296195949 133.087821060676)" r="64.7719510871193" cx="64.7719510871193" cy="64.7719510871193" fill="#faf8f0" fill-rule="evenodd" stroke="#faf8f0" stroke-width="0.684" stroke-linecap="square" stroke-linejoin="bevel"/><circle id="shape1" transform="matrix(3.98986399474666e-16 1.00000000000001 -1.00000000000001 3.98986399474666e-16 319.097769051225 178.527527413314)" r="19.44" cx="19.44" cy="19.44" fill="#faf8f0" fill-rule="evenodd" stroke="#faf8f0" stroke-width="0.684" stroke-linecap="square" stroke-linejoin="bevel"/><path id="shape2" transform="matrix(3.98986399474666e-16 1.00000000000001 -1.00000000000001 3.98986399474666e-16 348.646457468603 179.103662353394)" fill="#faf8f0" fill-rule="evenodd" stroke="#faf8f0" stroke-width="0.684" stroke-linecap="square" stroke-linejoin="bevel" d="M0 43.9113L18.9646 0L37.2928 43.2749" sodipodi:nodetypes="ccc"/><circle id="shape01" transform="matrix(1.3183898529194e-16 -0.999999970713031 0.999999970713031 1.3183898529194e-16 80.9720364512587 215.113764265748)" r="19.44" cx="19.44" cy="19.44" fill="#faf8f0" fill-rule="evenodd" stroke="#faf8f0" stroke-width="0.684" stroke-linecap="square" stroke-linejoin="bevel"/><path id="shape11" transform="matrix(1.38777878992629e-16 -0.999999970713032 0.999999970713032 1.38777878992629e-16 51.4233488992727 214.53762934254)" fill="#faf8f0" fill-rule="evenodd" stroke="#faf8f0" stroke-width="0.684" stroke-linecap="square" stroke-linejoin="bevel" d="M0 43.9113L18.9646 0L37.2928 43.2749" sodipodi:nodetypes="ccc"/><circle id="shape01" transform="matrix(-0.707106760477541 -0.707106760477544 0.707106760477544 -0.707106760477541 128.637367628956 294.970677277001)" r="19.44" cx="19.44" cy="19.44" fill="#faf8f0" fill-rule="evenodd" stroke="#faf8f0" stroke-width="0.684" stroke-linecap="square" stroke-linejoin="bevel"/><path id="shape11" transform="matrix(-0.707106760477541 -0.707106760477544 0.707106760477544 -0.707106760477541 107.335901374705 315.457365709096)" fill="#faf8f0" fill-rule="evenodd" stroke="#faf8f0" stroke-width="0.684" stroke-linecap="square" stroke-linejoin="bevel" d="M0 43.9113L18.9646 0L37.2928 43.2749" sodipodi:nodetypes="ccc"/><circle id="shape02" transform="matrix(0.707106760477541 0.707106760477544 -0.707106760477544 0.707106760477541 271.651877494291 96.7208499773906)" r="19.44" cx="19.44" cy="19.44" fill="#faf8f0" fill-rule="evenodd" stroke="#faf8f0" stroke-width="0.684" stroke-linecap="square" stroke-linejoin="bevel"/><path id="shape12" transform="matrix(0.707106760477541 0.707106760477544 -0.707106760477544 0.707106760477541 292.953343748544 76.2341615452951)" fill="#faf8f0" fill-rule="evenodd" stroke="#faf8f0" stroke-width="0.684" stroke-linecap="square" stroke-linejoin="bevel" d="M0 43.9113L18.9646 0L37.2928 43.2749" sodipodi:nodetypes="ccc"/><circle id="shape03" transform="matrix(0.70710676047754 -0.707106760477539 0.707106760477539 0.70710676047754 101.82925150235 122.932546162196)" r="19.44" cx="19.44" cy="19.44" fill="#faf8f0" fill-rule="evenodd" stroke="#faf8f0" stroke-width="0.684" stroke-linecap="square" stroke-linejoin="bevel"/><path id="shape13" transform="matrix(0.70710676047754 -0.707106760477539 0.707106760477539 0.70710676047754 81.342563070254 101.631079907946)" fill="#faf8f0" fill-rule="evenodd" stroke="#faf8f0" stroke-width="0.684" stroke-linecap="square" stroke-linejoin="bevel" d="M0 43.9113L18.9646 0L37.2928 43.2749" sodipodi:nodetypes="ccc"/><circle id="shape04" transform="matrix(-0.707106760477544 0.707106760477541 -0.707106760477541 -0.707106760477544 296.639478963539 271.751924890109)" r="19.44" cx="19.44" cy="19.44" fill="#faf8f0" fill-rule="evenodd" stroke="#faf8f0" stroke-width="0.684" stroke-linecap="square" stroke-linejoin="bevel"/><path id="shape14" transform="matrix(-0.707106760477544 0.707106760477541 -0.707106760477541 -0.707106760477544 317.126167395635 293.053391144362)" fill="#faf8f0" fill-rule="evenodd" stroke="#faf8f0" stroke-width="0.684" stroke-linecap="square" stroke-linejoin="bevel" d="M0 43.9113L18.9646 0L37.2928 43.2749" sodipodi:nodetypes="ccc"/><circle id="shape12" transform="matrix(0.999999971965394 0 0 0.999999971965394 180.1465842611 79.5161574046362)" r="19.44" cx="19.44" cy="19.44" fill="#faf8f0" fill-rule="evenodd" stroke="#faf8f0" stroke-width="0.684" stroke-linecap="square" stroke-linejoin="bevel"/><path id="shape21" transform="matrix(0.999999971965389 0 0 0.999999971965389 181.24070412889 49.467378213024)" fill="#faf8f0" fill-rule="evenodd" stroke="#faf8f0" stroke-width="0.684" stroke-linecap="square" stroke-linejoin="bevel" d="M0 43.9113L18.9646 0L37.2928 43.2749" sodipodi:nodetypes="ccc"/><circle id="shape02" transform="matrix(-0.999999942678417 0 0 -0.999999942678417 215.55193944393 316.092754650407)" r="19.44" cx="19.44" cy="19.44" fill="#faf8f0" fill-rule="evenodd" stroke="#faf8f0" stroke-width="0.684" stroke-linecap="square" stroke-linejoin="bevel"/><path id="shape111" transform="matrix(-0.999999942678417 0 0 -0.999999942678417 214.975804536876 345.641441374005)" fill="#faf8f0" fill-rule="evenodd" stroke="#faf8f0" stroke-width="0.684" stroke-linecap="square" stroke-linejoin="bevel" d="M0 43.9113L18.9646 0L37.2928 43.2749" sodipodi:nodetypes="ccc"/>
</svg>
