<?xml version="1.0" standalone="no"?>
<!DOCTYPE svg PUBLIC "-//W3C//DTD SVG 20010904//EN" "http://www.w3.org/TR/2001/REC-SVG-20010904/DTD/svg10.dtd">
<!-- Created using Krita: https://krita.org -->
<svg xmlns="http://www.w3.org/2000/svg" 
    xmlns:xlink="http://www.w3.org/1999/xlink"
    xmlns:krita="http://krita.org/namespaces/svg/krita"
    xmlns:sodipodi="http://sodipodi.sourceforge.net/DTD/sodipodi-0.dtd"
    width="396pt"
    height="396pt"
    viewBox="0 0 396 396">
<defs/>
<circle id="shape0" transform="translate(64.3782337725004, 71.1378441508216)" r="109.609025779759" cx="109.609025779759" cy="109.609025779759" fill="#faf8f0" fill-rule="evenodd" stroke="#faf8f0" stroke-width="0.684" stroke-linecap="square" stroke-linejoin="bevel"/><circle id="shape1" transform="translate(155.287279217928, 16.8070649820914)" r="19.44" cx="19.44" cy="19.44" fill="#faf8f0" fill-rule="evenodd" stroke="#faf8f0" stroke-width="0.684" stroke-linecap="square" stroke-linejoin="bevel"/><path id="shape2" transform="translate(155.863414158008, -12.7416234352866)" fill="#faf8f0" fill-rule="evenodd" stroke="#faf8f0" stroke-width="0.684" stroke-linecap="square" stroke-linejoin="bevel" d="M0 43.9113L18.9646 0L37.2928 43.2749" sodipodi:nodetypes="ccc"/><circle id="shape0" transform="matrix(-0.999999970713046 0 0 -0.999999970713046 192.870866216741 330.705901121304)" r="19.44" cx="19.44" cy="19.44" fill="#faf8f0" fill-rule="evenodd" stroke="#faf8f0" stroke-width="0.684" stroke-linecap="square" stroke-linejoin="bevel"/><path id="shape1" transform="matrix(-0.999999970713046 0 0 -0.999999970713046 192.294731293534 360.25458867329)" fill="#faf8f0" fill-rule="evenodd" stroke="#faf8f0" stroke-width="0.684" stroke-linecap="square" stroke-linejoin="bevel" d="M0 43.9113L18.9646 0L37.2928 43.2749" sodipodi:nodetypes="ccc"/><circle id="shape01" transform="matrix(-0.707106760477544 0.707106760477545 -0.707106760477545 -0.707106760477544 314.316135075394 251.764065753304)" r="19.44" cx="19.44" cy="19.44" fill="#faf8f0" fill-rule="evenodd" stroke="#faf8f0" stroke-width="0.684" stroke-linecap="square" stroke-linejoin="bevel"/><path id="shape11" transform="matrix(-0.707106760477544 0.707106760477545 -0.707106760477545 -0.707106760477544 334.802823507488 273.065532007554)" fill="#faf8f0" fill-rule="evenodd" stroke="#faf8f0" stroke-width="0.684" stroke-linecap="square" stroke-linejoin="bevel" d="M0 43.9113L18.9646 0L37.2928 43.2749" sodipodi:nodetypes="ccc"/><circle id="shape02" transform="matrix(0.707106760477545 -0.707106760477545 0.707106760477545 0.707106760477545 28.3491322406139 102.789318274167)" r="19.44" cx="19.44" cy="19.44" fill="#faf8f0" fill-rule="evenodd" stroke="#faf8f0" stroke-width="0.684" stroke-linecap="square" stroke-linejoin="bevel"/><path id="shape12" transform="matrix(0.707106760477545 -0.707106760477545 0.707106760477545 0.707106760477545 7.86244380851914 81.4878520199165)" fill="#faf8f0" fill-rule="evenodd" stroke="#faf8f0" stroke-width="0.684" stroke-linecap="square" stroke-linejoin="bevel" d="M0 43.9113L18.9646 0L37.2928 43.2749" sodipodi:nodetypes="ccc"/><circle id="shape03" transform="matrix(-0.707106760477544 -0.707106760477543 0.707106760477543 -0.707106760477544 62.6814430303395 282.820194606458)" r="19.44" cx="19.44" cy="19.44" fill="#faf8f0" fill-rule="evenodd" stroke="#faf8f0" stroke-width="0.684" stroke-linecap="square" stroke-linejoin="bevel"/><path id="shape13" transform="matrix(-0.707106760477544 -0.707106760477543 0.707106760477543 -0.707106760477544 41.3799767760888 303.306883038553)" fill="#faf8f0" fill-rule="evenodd" stroke="#faf8f0" stroke-width="0.684" stroke-linecap="square" stroke-linejoin="bevel" d="M0 43.9113L18.9646 0L37.2928 43.2749" sodipodi:nodetypes="ccc"/><circle id="shape04" transform="matrix(0.707106760477545 0.707106760477545 -0.707106760477545 0.707106760477545 288.886589785507 73.7546953390632)" r="19.44" cx="19.44" cy="19.44" fill="#faf8f0" fill-rule="evenodd" stroke="#faf8f0" stroke-width="0.684" stroke-linecap="square" stroke-linejoin="bevel"/><path id="shape14" transform="matrix(0.707106760477545 0.707106760477545 -0.707106760477545 0.707106760477545 310.188056039758 53.2680069069683)" fill="#faf8f0" fill-rule="evenodd" stroke="#faf8f0" stroke-width="0.684" stroke-linecap="square" stroke-linejoin="bevel" d="M0 43.9113L18.9646 0L37.2928 43.2749" sodipodi:nodetypes="ccc"/>
</svg>
