<?xml version="1.0" standalone="no"?>
<!DOCTYPE svg PUBLIC "-//W3C//DTD SVG 20010904//EN" "http://www.w3.org/TR/2001/REC-SVG-20010904/DTD/svg10.dtd">
<!-- Created using Krita: https://krita.org -->
<svg xmlns="http://www.w3.org/2000/svg" 
    xmlns:xlink="http://www.w3.org/1999/xlink"
    xmlns:krita="http://krita.org/namespaces/svg/krita"
    xmlns:sodipodi="http://sodipodi.sourceforge.net/DTD/sodipodi-0.dtd"
    width="1100pt"
    height="1600pt"
    viewBox="0 0 1100 1600">
<defs/>
<path id="shape0" transform="translate(191.999992842582, 657.999975342506)" fill="none" stroke="#faf8f0" stroke-width="49.999999999996" stroke-linecap="square" stroke-linejoin="bevel" d="M0 1L536 766L705 768.5C457 408.567 280 152.4 174 0C138.8 0 80.8 0.333333 0 1Z" sodipodi:nodetypes="ccccc"/><path id="shape1" transform="translate(153.250000362062, 638.500001508493)" fill="#faf8f0" fill-rule="evenodd" stroke="#faf8f0" stroke-width="9.9999999999992" stroke-linecap="square" stroke-linejoin="bevel" d="M24.0517 34.5L0 0L38.75 0.251825" sodipodi:nodetypes="ccc"/><path id="shape01" transform="matrix(-0.999999977765398 0 0 -0.999999977765398 935.384672283116 1446.80204957359)" fill="#faf8f0" fill-rule="evenodd" stroke="#faf8f0" stroke-width="9.9999999999992" stroke-linecap="square" stroke-linejoin="bevel" d="M24.0517 34.5L0 0L38.75 0.251825" sodipodi:nodetypes="ccc"/><path id="shape2" transform="translate(601.499964858359, 653.999975492402)" fill="none" stroke="#faf8f0" stroke-width="49.999999999996" stroke-linecap="square" stroke-linejoin="bevel" d="M0 304.5L262.5 0" sodipodi:nodetypes="cc"/><path id="shape3" transform="translate(867.75001203567, 624.500008661783)" fill="#faf8f0" fill-rule="evenodd" stroke="#faf8f0" stroke-width="9.9999999999992" stroke-linecap="square" stroke-linejoin="bevel" d="M0 0.202381L47.9377 0L22.3324 29.75" sodipodi:nodetypes="ccc"/><path id="shape4" transform="translate(206.999986419666, 1099.49993576353)" fill="none" stroke="#faf8f0" stroke-width="49.999999999996" stroke-linecap="square" stroke-linejoin="bevel" d="M0 312.064L271.5 0" sodipodi:nodetypes="cc"/><path id="shape01" transform="matrix(-0.999999977135672 0 0 -0.999999977135672 202.78207742917 1441.66790792872)" fill="#faf8f0" fill-rule="evenodd" stroke="#faf8f0" stroke-width="9.9999999999992" stroke-linecap="square" stroke-linejoin="bevel" d="M0 0.202381L47.9377 0L22.3324 29.75" sodipodi:nodetypes="ccc"/><path id="shape5" transform="translate(206.999985971859, 445.000011598658)" fill="none" stroke="#faf8f0" stroke-width="29.9999999999976" stroke-linecap="square" stroke-linejoin="bevel" d="M0 209C8 139.667 10 70 6.00002 0" sodipodi:nodetypes="cc"/><path id="shape6" transform="translate(270.000007037388, 443.000011546529)" fill="none" stroke="#faf8f0" stroke-width="29.9999999999976" stroke-linecap="square" stroke-linejoin="bevel" d="M96 205C41.6215 174.132 9.62151 105.798 0 0" sodipodi:nodetypes="cc"/><path id="shape7" transform="translate(459.242609942036, 606.697631087979)" fill="none" stroke="#faf8f0" stroke-width="29.9999999999976" stroke-linecap="square" stroke-linejoin="bevel" d="M0 158.666C46.8312 106.826 71.4698 53.9372 73.9159 0" sodipodi:nodetypes="cc"/><path id="shape8" transform="translate(614.561903606898, 603.000015716833)" fill="none" stroke="#faf8f0" stroke-width="29.9999999999976" stroke-linecap="square" stroke-linejoin="bevel" d="M75.438 249C16.1047 233 -8.22859 150 2.43811 0" sodipodi:nodetypes="cc"/><path id="shape9" transform="translate(673.999954323833, 601.999959203186)" fill="none" stroke="#faf8f0" stroke-width="29.9999999999976" stroke-linecap="square" stroke-linejoin="bevel" d="M70 156C33.3333 139.333 10 87.3333 0 0" sodipodi:nodetypes="cc"/><path id="shape10" transform="translate(756.581421431898, 440.000011468337)" fill="none" stroke="#faf8f0" stroke-width="29.9999999999976" stroke-linecap="square" stroke-linejoin="bevel" d="M3.91857 301C-18.5814 197.5 63.4186 100.5 57.4186 0" sodipodi:nodetypes="cc"/><path id="shape11" transform="translate(860.999992970669, 437.999996424103)" fill="none" stroke="#faf8f0" stroke-width="29.9999999999976" stroke-linecap="square" stroke-linejoin="bevel" d="M0 196.5C6 103.5 7 38 3 0" sodipodi:nodetypes="cc"/><path id="shape12" transform="translate(103.237588357459, 411.53613989069)" fill="none" stroke="#faf8f0" stroke-width="29.9999999999976" stroke-linecap="square" stroke-linejoin="bevel" d="M0 1.41421C108.894 26.163 241.123 13.435 277.893 0" sodipodi:nodetypes="cc"/><path id="shape13" transform="translate(96.1665206617421, 274.76962570991)" fill="none" stroke="#faf8f0" stroke-width="29.9999999999976" stroke-linecap="square" stroke-linejoin="bevel" d="M0 133.231C18.3848 -39.3031 274.357 -49.2025 294.156 132.524" sodipodi:nodetypes="cc"/><path id="shape14" transform="translate(516.878677110219, 572.757356442264)" fill="none" stroke="#faf8f0" stroke-width="29.9999999999976" stroke-linecap="square" stroke-linejoin="bevel" d="M0 9C118 34 210 18 260 0" sodipodi:nodetypes="cc"/><path id="shape15" transform="translate(511.238213609101, 437.482776808412)" fill="none" stroke="#faf8f0" stroke-width="29.9999999999976" stroke-linecap="square" stroke-linejoin="bevel" d="M0 140.931C11.2296 -32.2598 239.474 -55.1687 273.65 124.615" sodipodi:nodetypes="cc"/><path id="shape16" transform="translate(501.999981533828, 308.999988633372)" fill="none" stroke="#faf8f0" stroke-width="29.9999999999976" stroke-linecap="square" stroke-linejoin="bevel" d="M25 192C13 113 1 64 0 0" sodipodi:nodetypes="cc"/><path id="shape17" transform="translate(683.499997513207, 407.499998517384)" fill="none" stroke="#faf8f0" stroke-width="29.9999999999976" stroke-linecap="square" stroke-linejoin="bevel" d="M0 0C121.816 31.1127 247.635 18.8854 305.742 2.62194" sodipodi:nodetypes="cc"/><path id="shape18" transform="translate(682.358050758255, 244.767987919375)" fill="none" stroke="#faf8f0" stroke-width="29.9999999999976" stroke-linecap="square" stroke-linejoin="bevel" d="M0 156.869C13.435 -22.0293 279.307 -82.1334 311.127 161.111" sodipodi:nodetypes="cc"/><path id="shape19" transform="translate(380.999974180088, 307.591444461588)" fill="none" stroke="#faf8f0" stroke-width="29.9999999999976" stroke-linecap="square" stroke-linejoin="bevel" d="M0 347.409C68.4617 342.775 94.4325 283.777 77.9123 170.413C68.9781 114.466 65.9139 57.662 68.7199 0" sodipodi:nodetypes="ccc"/><path id="shape20" transform="translate(374.766600332639, 281.428503646019)" fill="none" stroke="#faf8f0" stroke-width="29.9999999999976" stroke-linecap="square" stroke-linejoin="bevel" d="M0 0C71.4178 31.1127 188.798 15.5563 202.233 9.19239" sodipodi:nodetypes="cc"/><path id="shape21" transform="translate(369.109745987995, 166.268607282281)" fill="none" stroke="#faf8f0" stroke-width="29.9999999999976" stroke-linecap="square" stroke-linejoin="bevel" d="M0 107.382C18.3848 -48.1818 219.203 -26.2615 215.668 118.695" sodipodi:nodetypes="cc"/>
</svg>
