<?xml version="1.0" standalone="no"?>
<!DOCTYPE svg PUBLIC "-//W3C//DTD SVG 20010904//EN" "http://www.w3.org/TR/2001/REC-SVG-20010904/DTD/svg10.dtd">
<!-- Created using Krita: https://krita.org -->
<svg xmlns="http://www.w3.org/2000/svg" 
    xmlns:xlink="http://www.w3.org/1999/xlink"
    xmlns:krita="http://krita.org/namespaces/svg/krita"
    xmlns:sodipodi="http://sodipodi.sourceforge.net/DTD/sodipodi-0.dtd"
    width="1100pt"
    height="1600pt"
    viewBox="0 0 1100 1600">
<defs/>
<path id="shape0" transform="translate(68.2328784645057, 740.849502467855)" fill="none" stroke="#faf8f0" stroke-width="49.999999999996" stroke-linecap="square" stroke-linejoin="bevel" d="M160.163 5.85524C6.0413 9.86016 15.7671 100.15 6.76712 174.15C-2.23288 248.15 -3.23288 385.15 9.76712 498.15C22.7671 611.15 46.7671 644.15 164.767 654.15C282.767 664.15 709.767 661.15 811.767 649.15C913.767 637.15 934.767 584.15 944.767 494.15C954.767 404.15 954.767 257.15 944.767 153.15C934.767 49.1504 884.767 6.15044 763.767 2.15044C642.767 -1.84956 324.355 -0.0736924 162.991 5.85524" sodipodi:nodetypes="czzzzzzzc"/><path id="shape1" transform="translate(441.941728359821, 920.653008519179)" fill="none" stroke="#faf8f0" stroke-width="49.999999999996" stroke-linecap="square" stroke-linejoin="bevel" d="M0.707107 274.357L0 0L265.165 139.3C265.165 139.3 177.012 184.319 0.707107 274.357Z" sodipodi:nodetypes="cccc"/><path id="shape2" transform="translate(417.810661680104, 881.737440048929)" fill="#faf8f0" fill-rule="evenodd" stroke="#faf8f0" stroke-width="1.99999999999984" stroke-linecap="square" stroke-linejoin="bevel" d="M0.25 47.5C0.166667 31.6667 0.0833333 15.8333 0 0L43.75 21.75C43.75 21.75 29.25 30.3333 0.25 47.5Z" sodipodi:nodetypes="cccc"/><path id="shape0" transform="matrix(0.999999968000237 0 0 0.999999968000237 418.784473327633 1189.61701439034)" fill="#faf8f0" fill-rule="evenodd" stroke="#faf8f0" stroke-width="1.99999999999984" stroke-linecap="square" stroke-linejoin="bevel" d="M0.25 47.5C0.166667 31.6667 0.0833333 15.8333 0 0L43.75 21.75C43.75 21.75 29.25 30.3333 0.25 47.5Z" sodipodi:nodetypes="cccc"/><path id="shape3" transform="matrix(0.999949697082301 0.0100301198903863 -0.0100301198903863 0.999949697082301 709.195454888292 1037.03215090464)" fill="#faf8f0" fill-rule="evenodd" stroke="#faf8f0" stroke-width="1.99999999999984" stroke-linecap="square" stroke-linejoin="bevel" d="M6.14207 0L52.0741 21.8569L0 49.0124L6.14207 0" sodipodi:nodetypes="cccc"/><path id="shape12" transform="matrix(0.999999992796937 0 0 0.999999992796937 79.4118060517699 451.536135150699)" fill="none" stroke="#faf8f0" stroke-width="29.9999999999976" stroke-linecap="square" stroke-linejoin="bevel" d="M0 1.41421C108.894 26.163 241.123 13.435 277.893 0" sodipodi:nodetypes="cc"/><path id="shape13" transform="matrix(0.999999992796937 0 0 0.999999992796937 72.3407384069863 314.769638717496)" fill="none" stroke="#faf8f0" stroke-width="29.9999999999976" stroke-linecap="square" stroke-linejoin="bevel" d="M0 133.231C18.3848 -39.3031 274.357 -49.2025 294.156 132.524" sodipodi:nodetypes="cc"/><path id="shape14" transform="matrix(0.999404521187042 0.0345049072563681 -0.0345049072563681 0.999404521187042 507.174791589525 520.197085677282)" fill="none" stroke="#faf8f0" stroke-width="29.9999999999976" stroke-linecap="square" stroke-linejoin="bevel" d="M0 9C118 34 210 18 260 0" sodipodi:nodetypes="cc"/><path id="shape15" transform="matrix(0.999404521187042 0.0345049072563681 -0.0345049072563681 0.999404521187042 506.205322678471 384.808464798136)" fill="none" stroke="#faf8f0" stroke-width="29.9999999999976" stroke-linecap="square" stroke-linejoin="bevel" d="M0 140.931C11.2296 -32.2598 239.474 -55.1687 273.65 124.615" sodipodi:nodetypes="cc"/><path id="shape16" transform="matrix(0.999999992796937 0 0 0.999999992796937 507.174196132262 341.99998468592)" fill="none" stroke="#faf8f0" stroke-width="29.9999999999976" stroke-linecap="square" stroke-linejoin="bevel" d="M8.8258 114C2.8258 65.234 1 64 0 0" sodipodi:nodetypes="cc"/><path id="shape17" transform="matrix(0.999999992796937 0 0 0.999999992796937 762.999998320407 443.121933841544)" fill="none" stroke="#faf8f0" stroke-width="29.9999999999976" stroke-linecap="square" stroke-linejoin="bevel" d="M0 12.8781C129.816 29.9908 173.309 16.2635 231.416 0" sodipodi:nodetypes="cc"/><path id="shape18" transform="matrix(0.999999992796937 0 0 0.999999992796937 698.621527959115 273.601215660547)" fill="none" stroke="#faf8f0" stroke-width="29.9999999999976" stroke-linecap="square" stroke-linejoin="bevel" d="M0 124.5C14.435 -18.3984 268.218 -77.9666 300.038 165.278" sodipodi:nodetypes="cc"/><path id="shape20" transform="matrix(0.999999992796937 0 0 0.999999992796937 379.940815847543 314.428499897166)" fill="none" stroke="#faf8f0" stroke-width="29.9999999999976" stroke-linecap="square" stroke-linejoin="bevel" d="M0 0C71.4178 31.1127 188.798 15.5563 202.233 9.19239" sodipodi:nodetypes="cc"/><path id="shape21" transform="matrix(0.999999992796937 0 0 0.999999992796937 374.283961543646 199.268590072039)" fill="none" stroke="#faf8f0" stroke-width="29.9999999999976" stroke-linecap="square" stroke-linejoin="bevel" d="M0 107.382C18.3848 -48.1818 219.203 -26.2615 215.668 118.695" sodipodi:nodetypes="cc"/><path id="shape201" transform="matrix(0.999355557234627 -0.0358943036372435 0.0358943036372435 0.999355557234627 251.975320583532 604.623452452971)" fill="none" stroke="#faf8f0" stroke-width="29.9999999999976" stroke-linecap="square" stroke-linejoin="bevel" d="M0 0C71.4178 31.1127 188.798 15.5563 202.233 9.19239" sodipodi:nodetypes="cc"/><path id="shape211" transform="matrix(0.999355557234627 -0.0358943036372435 0.0358943036372435 0.999355557234627 242.188526444908 489.740790335419)" fill="none" stroke="#faf8f0" stroke-width="29.9999999999976" stroke-linecap="square" stroke-linejoin="bevel" d="M0 107.382C18.3848 -48.1818 219.203 -26.2615 215.668 118.695" sodipodi:nodetypes="cc"/><path id="shape4" transform="translate(131.521858696463, 473.761558896504)" fill="none" stroke="#faf8f0" stroke-width="29.9999999999976" stroke-linecap="square" stroke-linejoin="bevel" d="M57.9828 0C45.2548 78.4889 59.397 187.383 0 281.428" sodipodi:nodetypes="cc"/><path id="shape5" transform="matrix(0.99688433620199 -0.0788772478926444 0.0788772478926444 0.99688433620199 239.008782948169 477.365507741717)" fill="none" stroke="#faf8f0" stroke-width="29.9999999999976" stroke-linecap="square" stroke-linejoin="bevel" d="M13.3547 0C5.87112 37.7744 1.41957 70.6165 0 98.5264" sodipodi:nodetypes="cc"/><path id="shape6" transform="translate(249.608701926069, 610.940278935193)" fill="none" stroke="#faf8f0" stroke-width="29.9999999999976" stroke-linecap="square" stroke-linejoin="bevel" d="M0 0C11.3137 72.832 15.5563 53.7401 26.8701 120.208" sodipodi:nodetypes="cc"/><path id="shape7" transform="translate(317.177434943258, 619.500030446763)" fill="none" stroke="#faf8f0" stroke-width="29.9999999999976" stroke-linecap="square" stroke-linejoin="bevel" d="M5.82258 0C-0.510753 40 -1.67742 75 2.32258 105" sodipodi:nodetypes="cc"/><path id="shape8" transform="translate(385.373209380255, 632.860591551062)" fill="none" stroke="#faf8f0" stroke-width="29.9999999999976" stroke-linecap="square" stroke-linejoin="bevel" d="M0 0C7.28596 26.2149 8.82823 58.2614 4.62681 96.1394" sodipodi:nodetypes="cc"/><path id="shape9" transform="translate(453.255437765768, 337.997053364701)" fill="none" stroke="#faf8f0" stroke-width="29.9999999999976" stroke-linecap="square" stroke-linejoin="bevel" d="M9.19241 0C6.19241 141 37.4264 265.155 0 393.858" sodipodi:nodetypes="cc"/><path id="shape10" transform="translate(523.259007717111, 542.350890431114)" fill="none" stroke="#faf8f0" stroke-width="29.9999999999976" stroke-linecap="square" stroke-linejoin="bevel" d="M56.5685 196.576C14.6491 93.5462 18.1846 90.5355 0 0" sodipodi:nodetypes="cc"/><path id="shape11" transform="translate(581.94886939349, 551.543278404523)" fill="none" stroke="#faf8f0" stroke-width="29.9999999999976" stroke-linecap="square" stroke-linejoin="bevel" d="M29.6985 0C27.4566 78.62 27.3976 84.0889 0 153.442" sodipodi:nodetypes="cc"/><path id="shape12" transform="translate(669.888301671074, 548.99999647228)" fill="none" stroke="#faf8f0" stroke-width="29.9999999999976" stroke-linecap="square" stroke-linejoin="bevel" d="M0.111694 0C-0.391266 78.5314 -1.09544 130.999 44.2895 180.027" sodipodi:nodetypes="cc"/><path id="shape13" transform="translate(755.190027353885, 467.397598899723)" fill="none" stroke="#faf8f0" stroke-width="29.9999999999976" stroke-linecap="square" stroke-linejoin="bevel" d="M67.8823 0C68.8234 133.18 71.1266 202.086 0 260.922" sodipodi:nodetypes="cc"/><path id="shape14" transform="translate(880.999994338941, 467.999996992763)" fill="none" stroke="#faf8f0" stroke-width="29.9999999999976" stroke-linecap="square" stroke-linejoin="bevel" d="M0 0C7.20768 113.099 -16.819 137.724 58.0378 286.483" sodipodi:nodetypes="cc"/>
</svg>
